<?xml version="1.0" encoding="utf-8"?>
<!-- Generator: Adobe Illustrator 21.1.0, SVG Export Plug-In . SVG Version: 6.00 Build 0)  -->
<svg version="1.1" xmlns="http://www.w3.org/2000/svg" xmlns:xlink="http://www.w3.org/1999/xlink" x="0px" y="0px"
	 viewBox="0 0 163 163" style="enable-background:new 0 0 163 163;" xml:space="preserve">
<style type="text/css">
	.st0{fill:#FFFFFF;}
</style>
<g id="Calque_2">
</g>
<g id="Calque_1">
	<g>
		<path class="st0" d="M43.7,41.8c-0.2-0.1-0.5-0.2-0.6-0.5c-0.1-0.3-0.2-0.6-0.1-0.8c0.1-0.4,0.5-0.7,1.1-0.9
			c0.3-0.1,0.6-0.1,0.8-0.1c0.1,0,0.3,0.2,0.5,0.4c0.3,0.4,0.5,0.8,0.4,1.1c-0.1,0.4-0.6,0.7-1.3,0.9C44.1,41.8,43.9,41.8,43.7,41.8
			z"/>
		<path class="st0" d="M49.2,43.6c-0.2-0.1-0.4-0.3-0.6-0.5c-0.1-0.3-0.2-0.6-0.1-0.8c0.1-0.4,0.5-0.7,1.2-0.9
			c0.3-0.1,0.6-0.1,0.8-0.1c0.1,0,0.3,0.2,0.5,0.4c0.3,0.4,0.4,0.8,0.3,1.1c-0.1,0.4-0.6,0.7-1.3,0.8C49.6,43.7,49.4,43.6,49.2,43.6
			z"/>
		<path class="st0" d="M54.7,45.7c-0.2-0.1-0.4-0.3-0.6-0.6c-0.1-0.3-0.1-0.6,0-0.8c0.1-0.4,0.6-0.6,1.2-0.8c0.4-0.1,0.6-0.1,0.8,0
			c0.1,0,0.3,0.2,0.5,0.4c0.3,0.5,0.4,0.9,0.3,1.2c-0.2,0.4-0.6,0.7-1.4,0.8C55.1,45.8,54.8,45.7,54.7,45.7z"/>
		<path class="st0" d="M60.1,48c-0.2-0.1-0.4-0.3-0.6-0.6c-0.1-0.3-0.1-0.6,0-0.8c0.2-0.4,0.6-0.6,1.3-0.8c0.4-0.1,0.6-0.1,0.8,0
			c0.1,0,0.3,0.2,0.5,0.4c0.3,0.5,0.3,0.9,0.2,1.2c-0.2,0.4-0.6,0.6-1.4,0.7C60.5,48.1,60.2,48.1,60.1,48z"/>
		<path class="st0" d="M65.4,50.5c-0.2-0.1-0.4-0.3-0.5-0.6c-0.1-0.3-0.1-0.6,0-0.8c0.2-0.4,0.6-0.6,1.3-0.7c0.4-0.1,0.6,0,0.8,0
			c0.1,0.1,0.3,0.2,0.5,0.4c0.3,0.5,0.3,0.9,0.2,1.2c-0.2,0.4-0.7,0.6-1.4,0.7C65.8,50.6,65.5,50.6,65.4,50.5z"/>
		<path class="st0" d="M70.6,53.2c-0.2-0.1-0.4-0.3-0.5-0.6C70,52.3,70,52,70.1,51.8c0.2-0.4,0.6-0.6,1.3-0.7c0.4,0,0.6,0,0.8,0.1
			c0.1,0.1,0.2,0.2,0.4,0.5c0.2,0.5,0.3,0.9,0.1,1.2c-0.2,0.4-0.7,0.6-1.4,0.6C70.9,53.4,70.7,53.3,70.6,53.2z"/>
		<path class="st0" d="M75.7,56.2c-0.2-0.1-0.4-0.3-0.5-0.7c-0.1-0.3,0-0.6,0.1-0.8c0.2-0.3,0.6-0.6,1.3-0.6c0.4,0,0.6,0,0.8,0.1
			c0.1,0.1,0.2,0.2,0.4,0.5c0.2,0.5,0.2,0.9,0.1,1.2c-0.2,0.4-0.7,0.6-1.5,0.5C76,56.3,75.8,56.3,75.7,56.2z"/>
		<path class="st0" d="M80.6,59.3c-0.2-0.1-0.4-0.4-0.5-0.7c-0.1-0.3,0-0.6,0.1-0.8c0.2-0.3,0.7-0.5,1.4-0.6c0.4,0,0.6,0,0.7,0.1
			c0.1,0.1,0.2,0.2,0.4,0.5c0.2,0.5,0.2,0.9,0,1.2c-0.2,0.4-0.7,0.5-1.5,0.5C81,59.5,80.8,59.4,80.6,59.3z"/>
		<path class="st0" d="M85.5,62.6c-0.2-0.1-0.4-0.4-0.4-0.7c0-0.3,0-0.6,0.1-0.8c0.2-0.3,0.7-0.5,1.4-0.5c0.4,0,0.6,0,0.7,0.1
			c0.1,0.1,0.2,0.2,0.4,0.5c0.2,0.5,0.2,0.9,0,1.2c-0.3,0.4-0.8,0.5-1.5,0.4C85.8,62.8,85.6,62.7,85.5,62.6z"/>
		<path class="st0" d="M90.2,66.1c-0.2-0.2-0.3-0.4-0.4-0.7c0-0.3,0-0.6,0.2-0.8c0.2-0.3,0.7-0.5,1.4-0.5c0.4,0,0.6,0.1,0.7,0.2
			c0.1,0.1,0.2,0.2,0.4,0.5c0.2,0.5,0.1,0.9-0.1,1.2c-0.3,0.4-0.8,0.5-1.5,0.4C90.5,66.3,90.3,66.2,90.2,66.1z"/>
		<path class="st0" d="M94.8,69.8c-0.2-0.2-0.3-0.4-0.4-0.7c0-0.3,0-0.6,0.2-0.8c0.3-0.3,0.7-0.4,1.4-0.4c0.4,0,0.6,0.1,0.7,0.2
			c0.1,0.1,0.2,0.3,0.3,0.5c0.1,0.5,0.1,0.9-0.1,1.2c-0.3,0.3-0.8,0.5-1.5,0.3C95.1,70,94.9,69.9,94.8,69.8z"/>
		<path class="st0" d="M99.2,73.6c-0.2-0.2-0.3-0.4-0.4-0.7c0-0.3,0.1-0.6,0.2-0.8c0.3-0.3,0.7-0.4,1.4-0.4c0.4,0,0.6,0.1,0.7,0.2
			c0.1,0.1,0.2,0.3,0.3,0.5c0.1,0.5,0.1,0.9-0.2,1.2c-0.3,0.3-0.8,0.4-1.5,0.3C99.5,73.8,99.3,73.7,99.2,73.6z"/>
		<path class="st0" d="M103.5,77.6c-0.2-0.2-0.3-0.4-0.3-0.8c0-0.3,0.1-0.6,0.3-0.8c0.3-0.3,0.8-0.4,1.4-0.3
			c0.4,0.1,0.6,0.1,0.7,0.3c0.1,0.1,0.2,0.3,0.3,0.6c0.1,0.5,0,0.9-0.2,1.2c-0.3,0.3-0.8,0.4-1.6,0.2
			C103.8,77.9,103.6,77.7,103.5,77.6z"/>
		<path class="st0" d="M107.6,81.8c-0.2-0.2-0.3-0.4-0.3-0.8c0-0.3,0.1-0.6,0.3-0.7c0.3-0.3,0.8-0.4,1.5-0.3
			c0.4,0.1,0.6,0.2,0.7,0.3c0.1,0.1,0.2,0.3,0.3,0.6c0.1,0.5,0,0.9-0.2,1.2c-0.3,0.3-0.8,0.4-1.6,0.1
			C107.9,82,107.7,81.9,107.6,81.8z"/>
		<path class="st0" d="M111.6,86.1c-0.2-0.2-0.3-0.4-0.3-0.8c0-0.3,0.1-0.6,0.3-0.7c0.3-0.3,0.8-0.3,1.5-0.2
			c0.4,0.1,0.6,0.2,0.7,0.3c0.1,0.1,0.2,0.3,0.3,0.6c0.1,0.5,0,0.9-0.3,1.2c-0.3,0.3-0.9,0.3-1.6,0.1
			C111.9,86.4,111.7,86.2,111.6,86.1z"/>
		<path class="st0" d="M115.4,90.6c-0.2-0.2-0.2-0.5-0.2-0.8c0-0.3,0.2-0.6,0.3-0.7c0.3-0.3,0.8-0.3,1.5-0.1
			c0.3,0.1,0.6,0.2,0.7,0.3c0.1,0.1,0.2,0.3,0.2,0.6c0,0.5-0.1,0.9-0.3,1.1c-0.3,0.3-0.9,0.3-1.6,0
			C115.7,90.9,115.5,90.7,115.4,90.6z"/>
		<path class="st0" d="M119,95.2c-0.2-0.2-0.2-0.5-0.2-0.8c0.1-0.3,0.2-0.6,0.4-0.7c0.3-0.2,0.8-0.3,1.5-0.1
			c0.3,0.1,0.6,0.2,0.7,0.4c0.1,0.1,0.1,0.3,0.2,0.6c0,0.5-0.1,0.9-0.4,1.1c-0.4,0.3-0.9,0.3-1.6,0C119.3,95.5,119.1,95.3,119,95.2z
			"/>
		<path class="st0" d="M122.5,99.9c-0.1-0.2-0.2-0.5-0.2-0.8c0.1-0.3,0.2-0.5,0.4-0.7c0.3-0.2,0.8-0.2,1.5,0
			c0.3,0.1,0.6,0.3,0.7,0.4c0.1,0.1,0.1,0.3,0.2,0.6c0,0.5-0.1,0.9-0.4,1.1c-0.4,0.3-0.9,0.2-1.6-0.1
			C122.7,100.2,122.6,100.1,122.5,99.9z"/>
		<path class="st0" d="M125.7,104.8c-0.1-0.2-0.2-0.5-0.2-0.8c0.1-0.3,0.2-0.5,0.4-0.7c0.3-0.2,0.8-0.2,1.5,0
			c0.3,0.1,0.5,0.3,0.6,0.4c0.1,0.1,0.1,0.3,0.2,0.6c0,0.5-0.2,0.9-0.5,1.1c-0.4,0.2-0.9,0.2-1.6-0.2
			C126,105.1,125.8,105,125.7,104.8z"/>
		<path class="st0" d="M128.8,109.8c-0.1-0.2-0.2-0.5-0.1-0.8c0.1-0.3,0.2-0.5,0.4-0.7c0.3-0.2,0.8-0.2,1.5,0.1
			c0.3,0.1,0.5,0.3,0.6,0.4c0.1,0.1,0.1,0.3,0.1,0.6c0,0.5-0.2,0.9-0.5,1.1c-0.4,0.2-0.9,0.2-1.6-0.2
			C129.1,110.1,128.9,110,128.8,109.8z"/>
		<path class="st0" d="M131.8,114.9c-0.1-0.2-0.2-0.5-0.1-0.8c0.1-0.3,0.3-0.5,0.5-0.6c0.3-0.2,0.8-0.2,1.5,0.1
			c0.3,0.2,0.5,0.3,0.6,0.5c0.1,0.1,0.1,0.3,0.1,0.6c-0.1,0.5-0.2,0.9-0.5,1.1c-0.4,0.2-0.9,0.1-1.5-0.3
			C132,115.3,131.8,115.1,131.8,114.9z"/>
		<path class="st0" d="M134.5,120.1c-0.1-0.2-0.1-0.5-0.1-0.8c0.1-0.3,0.3-0.5,0.5-0.6c0.4-0.2,0.8-0.1,1.5,0.2
			c0.3,0.2,0.5,0.3,0.6,0.5c0.1,0.1,0.1,0.3,0.1,0.6c-0.1,0.5-0.3,0.9-0.6,1c-0.4,0.2-0.9,0.1-1.5-0.3
			C134.7,120.5,134.6,120.3,134.5,120.1z"/>
		<path class="st0" d="M137,125.4c-0.1-0.2-0.1-0.5,0-0.8c0.1-0.3,0.3-0.5,0.5-0.6c0.4-0.2,0.8-0.1,1.5,0.2c0.3,0.2,0.5,0.3,0.6,0.5
			c0,0.1,0.1,0.3,0.1,0.6c-0.1,0.5-0.3,0.9-0.6,1c-0.4,0.2-0.9,0.1-1.5-0.4C137.3,125.8,137.1,125.6,137,125.4z"/>
		<path class="st0" d="M139.4,130.8c-0.1-0.2-0.1-0.5,0-0.8c0.1-0.3,0.3-0.5,0.5-0.6c0.4-0.2,0.9-0.1,1.4,0.3
			c0.3,0.2,0.5,0.4,0.6,0.5c0,0.1,0.1,0.3,0.1,0.6c-0.1,0.5-0.3,0.9-0.6,1c-0.4,0.2-0.9,0-1.5-0.4
			C139.6,131.1,139.5,130.9,139.4,130.8z"/>
	</g>
</g>
</svg>
