<?xml version="1.0" encoding="utf-8"?>
<!-- Generator: Adobe Illustrator 21.1.0, SVG Export Plug-In . SVG Version: 6.00 Build 0)  -->
<svg version="1.1" xmlns="http://www.w3.org/2000/svg" xmlns:xlink="http://www.w3.org/1999/xlink" x="0px" y="0px"
	 viewBox="0 0 163 163" style="enable-background:new 0 0 163 163;" xml:space="preserve">
<style type="text/css">
	.st0{fill:#FFFFFF;}
</style>
<g id="Calque_2">
</g>
<g id="Calque_1">
	<g>
		<path class="st0" d="M12,36c-0.1-0.1-0.2-0.2-0.3-0.3c-0.1-0.1-0.3-0.3-0.4-0.5c-0.1-0.2-0.1-0.5-0.1-0.8c0-0.7,0.2-1.6,0.6-2.8
			c0.1-0.5,0.3-1,0.4-1.5c0.1-0.3,0.2-0.6,0.2-0.8c0-0.1,0-0.3,0.1-0.5c0-0.2,0.1-0.3,0.1-0.4c0.2,0,0.4-0.4,0.6-1.1
			c0.1-0.3,0.1-0.5,0.2-0.7c0.1-0.2,0.1-0.4,0.1-0.5c0-0.1,0.1-0.1,0.1-0.3c0-0.1,0.1-0.2,0.1-0.3c0.1-0.4,0.3-0.9,0.5-1.3
			c0.2-0.8,0.5-1.7,0.8-2.6c0.3-0.9,0.6-1.6,0.8-2.1l0.3-0.8c0-0.1,0.1-0.2,0.1-0.3c0.1-0.2,0.1-0.3,0.1-0.4c0-0.1,0-0.1-0.1-0.2
			c-0.1-0.1-0.2-0.3-0.2-0.6c0-0.5,0.2-0.8,0.5-1.1c0.2-0.2,0.5-0.4,0.8-0.5c0.3-0.1,0.8-0.2,1.2-0.2c0.2,0,0.6,0,1.1,0.1
			c0.2,0,0.8,0,1.8,0c0.1,0.1,0.3,0.1,0.6,0.3c0.6,0.3,1,0.4,1,0.5c0,0.1,0,0.2,0.1,0.2c0.1,0,0.2,0.1,0.3,0.1
			c0.2,0,0.6,0.3,1.1,0.8s0.9,1,1.1,1.4c0.2,0.3,0.3,0.6,0.4,0.8c0.1,0.2,0.1,0.4,0.1,0.7c0,0.1,0,0.3-0.1,0.6
			c0,0.3-0.1,0.6-0.1,0.9c-0.1,0.3-0.1,0.5-0.2,0.5c-0.3,0.2-0.4,0.4-0.4,0.6c0,0.2-0.3,0.7-0.8,1.6c-0.5,0.9-1,1.5-1.4,1.9
			c-0.5,0.6-1.1,1.1-1.7,1.5c-0.8,0.4-1.7,0.7-2.6,0.9c-1,0.3-1.7,0.4-2.2,0.4c-0.6,0.1-1,0.2-1.1,0.2c-0.1,0.1-0.2,0.2-0.3,0.5
			c-0.1,0.3-0.2,0.5-0.3,0.8c-0.1,0.3-0.1,0.4-0.1,0.5c-0.1,0.2-0.3,0.8-0.7,1.9c-0.3,1-0.6,1.8-0.7,2.4c-0.1,0.2-0.2,0.4-0.4,0.6
			c-0.2,0.1-0.4,0.2-0.6,0.2C12.2,36.1,12.1,36.1,12,36z M16.6,26.8c0.5,0,1.1-0.1,1.9-0.4c0.7-0.2,1.4-0.6,2.2-1.1
			c0.4-0.3,0.9-0.8,1.5-1.5c0.1-0.2,0.3-0.6,0.7-1.3c0.1-0.3,0.3-0.6,0.4-1c0.1-0.4,0.2-0.8,0.2-1.1c0-0.1,0-0.3,0-0.3
			c-0.2-1-0.7-1.6-1.6-1.9c-0.6-0.1-1-0.1-1.3-0.1c-0.1,0-0.3,0-0.6,0.1c-0.3,0.1-0.5,0.2-0.6,0.4c-0.1,0.2-0.3,0.5-0.5,1.1
			c-0.6,1.1-1,2-1.2,2.5c-0.4,1.3-0.7,2.2-0.9,2.9c-0.3,0.7-0.4,1.1-0.4,1.2v0.1c0,0.1,0,0.2,0,0.3c0,0.1,0,0.2,0.1,0.3
			C16.3,26.8,16.4,26.8,16.6,26.8z"/>
		<path class="st0" d="M24.1,33.5c-0.3-0.2-0.4-0.3-0.4-0.3c0-0.1,0-0.2-0.1-0.3c-0.1-0.1-0.2-0.3-0.2-0.4c-0.1-0.1,0-0.6,0.3-1.5
			s0.8-1.8,1.4-2.9c0.1-0.1,0.3-0.3,0.4-0.6c0.2-0.3,0.3-0.4,0.3-0.5c0-0.1,0-0.1,0.1-0.2c0.1-0.1,0.1-0.1,0.2-0.1l0.2-0.4
			c0.1-0.2,0.4-0.6,1.1-1.2c0.7-0.6,1.2-1.1,1.5-1.3c0.4-0.2,0.7-0.4,1.1-0.4c0.4,0,0.8,0.1,1.1,0.4l0.8,0.6c0.6,0.5,0.9,0.7,1,0.8
			l1,0.9l-0.5,1.4c-0.2,0.5-0.3,1-0.3,1.4c0,0.7,0.2,1.4,0.6,2c0.1,0.2,0.2,0.4,0.4,0.5c0.2,0.1,0.4,0.2,0.6,0.2
			c0.4,0.1,0.6,0.3,0.6,0.6c0,0.4-0.1,0.7-0.2,0.9c-0.1,0.2-0.3,0.3-0.5,0.4c-0.3,0-0.5,0.1-0.6,0.1c-0.5,0-1-0.1-1.5-0.4
			c-0.4-0.3-0.8-0.8-1.2-1.4c-0.1-0.1-0.2-0.3-0.3-0.6c-0.1-0.3-0.2-0.5-0.2-0.6c-0.1,0.2-0.3,0.4-0.6,0.7c-1.9,1.9-3.5,2.9-4.7,2.9
			c-0.4,0-0.8-0.1-1.1-0.3C24.5,33.8,24.4,33.7,24.1,33.5z M27.8,30.6c0.1-0.1,0.2-0.2,0.3-0.3c0.1-0.1,0.2-0.2,0.4-0.3
			c0.5-0.4,0.9-0.8,1.2-1.1c0.3-0.3,0.6-0.6,0.9-1.1l0.6-1c-0.2-0.4-0.4-0.7-0.5-0.8c-0.1-0.1-0.3-0.2-0.4-0.2c-0.4,0-0.8,0.3-1.4,1
			c-0.6,0.7-1.2,1.7-2,3c-0.2,0.3-0.4,0.7-0.5,1c-0.1,0.4-0.2,0.6-0.3,0.7C26.4,31.6,27,31.3,27.8,30.6z"/>
		<path class="st0" d="M36.3,33.2c-0.1-0.2-0.2-0.4-0.1-0.8c0.1-0.6,0.2-1.4,0.4-2.2l0.1-0.6c0.1-0.5,0.3-1.5,0.9-3
			c0.5-1.5,1-2.5,1.3-3c0.2-0.2,0.5-0.3,1-0.3c0.4,0,0.6,0.1,0.8,0.2c0.1,0.1,0.2,0.3,0.2,0.6c0,0.4-0.3,1.2-0.8,2.3L39.8,27
			c-0.1,0.2-0.2,0.5-0.3,0.7s-0.1,0.3,0,0.3c0.2-0.4,0.7-0.8,1.5-1.5c0.8-0.6,1.3-1,1.6-1.1c0.1-0.1,0.3-0.1,0.5-0.2
			c0.2-0.1,0.3-0.1,0.4-0.2c0.3-0.2,0.7-0.3,1.1-0.3c0.3,0,0.6,0,0.8,0.1c0.2,0.1,0.4,0.2,0.4,0.4c0,0.1,0.1,0.2,0.2,0.3
			c0.1,0.1,0.1,0.1,0.2,0.1c0.1,0,0.1,0,0.1,0.1c0,0,0,0.1,0,0.1c0,0.1-0.1,0.3-0.4,0.6s-0.5,0.4-0.8,0.4c-0.2,0-0.4,0.1-0.6,0.1
			c-0.2,0.1-0.4,0.2-0.7,0.3l-0.7,0.4c-0.6,0.3-1.2,0.6-1.6,0.9c-0.4,0.3-0.9,0.7-1.3,1.2c-0.1,0.1-0.2,0.2-0.4,0.4
			c-0.2,0.2-0.3,0.4-0.5,0.6c-0.1,0.1-0.3,0.5-0.4,1c-0.1,0.6-0.2,0.9-0.2,1c0,0.1-0.1,0.2-0.1,0.3c-0.1,0.2-0.1,0.3-0.3,0.4
			c-0.2,0.2-0.3,0.4-0.4,0.4c-0.1,0.1-0.2,0.1-0.4,0.1c-0.2,0-0.4-0.1-0.6-0.4C36.7,33.5,36.4,33.3,36.3,33.2z"/>
		<path class="st0" d="M47.3,33.8c-0.3-0.5-0.5-1-0.6-1.7c0.1-0.7,0.1-1.2,0.2-1.5c0.2-0.9,0.5-2,0.8-3.2c0.3-1.2,0.5-1.9,0.5-2.1
			c0.1-0.2,0.2-0.3,0.4-0.3c0.2,0,0.4,0.1,0.7,0.2c0.3,0.2,0.5,0.4,0.6,0.7c0.1,0.2,0.2,0.4,0.2,0.7c0,0.4-0.2,1.2-0.6,2.5
			c-0.3,0.9-0.4,1.6-0.5,2C49,31.4,49,31.8,49,32.3c-0.1,0.8-0.1,1.4-0.2,1.7c-0.1,0.3-0.2,0.5-0.3,0.4C48,34.5,47.6,34.2,47.3,33.8
			z M50.9,22.9c-0.1,0-0.2-0.1-0.4-0.2c-0.2,0-0.4-0.2-0.7-0.5c-0.3-0.3-0.5-0.5-0.5-0.6c0-0.2,0-0.5,0.1-1c0.1-0.4,0.2-0.8,0.3-1.1
			s0.4-0.5,0.6-0.5c0.1,0,0.3,0.1,0.5,0.1s0.5,0.2,0.8,0.3c0.4,0.7,0.5,1.3,0.5,1.8c0,0.7-0.4,1.3-1.1,1.6
			C51,22.9,50.9,22.9,50.9,22.9z"/>
		<path class="st0" d="M53,34.3c-0.5-0.3-0.9-0.6-1.2-1c-0.3-0.4-0.4-0.8-0.4-1.2c0-0.3,0.1-0.5,0.4-0.5c0.2,0,0.4,0.1,0.6,0.3
			c0.3,0.2,0.5,0.3,0.7,0.4c0.2,0.1,0.4,0.1,0.6,0.1c0.3,0,0.6-0.1,0.8-0.2c0.2-0.1,0.4-0.3,0.4-0.5c0-0.1,0-0.2-0.1-0.5
			s-0.2-0.5-0.3-0.7c-0.4-0.6-0.7-1.2-0.8-1.8c-0.1-0.6-0.2-1.3-0.3-2.1c0-0.4,0.3-0.9,0.9-1.5c0.6-0.6,1.4-1.1,2.2-1.6
			c0.8-0.5,1.5-0.7,2-0.8c1,0,1.6,0.1,1.8,0.3c0.3,0.2,0.5,0.5,0.7,1c0.2,0.5,0.3,0.9,0.3,1.2c0,0.1-0.1,0.3-0.2,0.5
			C61.1,26,61,26.1,61,26.2l-0.3,0.4L60.5,27c0,0.1-0.1,0.2-0.2,0.4c-0.1,0.2-0.2,0.3-0.2,0.3c-0.1,0-0.2,0-0.3,0
			c-0.3,0-0.6-0.1-0.9-0.4c-0.3-0.3-0.4-0.6-0.4-0.9c0-0.2,0.1-0.5,0.3-0.7c0.2-0.2,0.3-0.4,0.3-0.4c0-0.1-0.1-0.1-0.3-0.1
			c-0.2,0-0.6,0.1-1.1,0.4c-0.5,0.2-1,0.6-1.3,1c-0.4,0.4-0.6,0.8-0.6,1.3c0,0.3,0.1,0.6,0.2,0.9c0.1,0.3,0.2,0.6,0.4,0.9
			c0.1,0.1,0.4,0.6,0.7,1.3s0.4,1.3,0.4,1.8c0,0.7-0.2,1.1-0.7,1.5c-0.5,0.3-1.2,0.5-2.1,0.5C54,34.7,53.5,34.5,53,34.3z"/>
	</g>
	<g>
		<path class="st0" d="M119.2,156.5c-0.5,0-1-0.1-1.4-0.3c-0.5-0.2-0.9-0.5-1.2-0.8c-0.1-0.1-0.2-0.4-0.2-0.7c0-0.4,0.1-0.7,0.2-1.1
			c0.1-0.3,0.2-0.5,0.4-0.5c0.1,0,0.2,0.1,0.3,0.2s0.3,0.2,0.4,0.4c0.4,0.3,0.7,0.5,1.1,0.5c0.7,0,1.4-0.6,2.1-1.7l0.7-1.6
			c1-2.3,1.6-3.6,1.8-4c0,0,0-0.1,0-0.1c0-0.1,0.1-0.1,0.1-0.2c0-0.1,0.1-0.2,0.2-0.5c0.1-0.2,0.2-0.5,0.2-0.8l1.2-3.3
			c0.1-0.4,0.2-0.8,0.3-1.2c0.1-0.4,0.3-0.8,0.4-1.1c0.1-0.1,0.4-1,0.8-2.4l0.4-1.2c0.2-0.7,0.4-1.2,0.5-1.7
			c0.1-0.5,0.2-0.8,0.2-0.8l-1.6,0.3c-0.4,0.2-0.8,0.3-1,0.3c-0.3,0-0.4-0.1-0.3-0.3v-0.3c-0.1,0.1-0.2,0-0.4-0.3s-0.2-0.5-0.2-0.7
			c0-0.1,0.2-0.3,0.7-0.5c0.4-0.2,1-0.3,1.5-0.4l1.4-0.2c0.2,0,0.5-0.1,1.1-0.1c0.1-0.1,0.4,0,0.9,0.2s0.8,0.4,1,0.5
			c0.1,0.2,0.2,0.4,0.2,0.6c0,0.3-0.1,0.6-0.2,1.1c-0.2,0.5-0.5,1.5-1.1,3l-0.9,2.6c-0.4,1.4-0.8,2.3-1,2.9
			c-0.1,0.2-0.2,0.5-0.3,0.9c-0.3,0.9-0.6,1.6-0.7,2.2c-0.2,0.5-0.5,1.2-0.7,2.1c0,0.2,0,0.3-0.1,0.5c-0.1,0.2-0.2,0.3-0.3,0.4
			l-0.7,1.7l-0.3,0.7c0,0.1-0.1,0.4-0.3,0.8c-0.2,0.4-0.3,0.7-0.4,0.9c-0.1,0.1-0.2,0.3-0.3,0.6c-0.2,0.2-0.2,0.4-0.2,0.4
			c0,0,0,0.1,0,0.1c0,0-0.1,0.1-0.1,0.1c0,0-0.1,0.1-0.1,0.1c0,0-0.1,0.1-0.1,0.2c-0.1,0.2-0.5,0.7-1.1,1.3s-1.1,1.1-1.4,1.2
			C120.2,156.4,119.7,156.5,119.2,156.5z"/>
		<path class="st0" d="M135.3,149.8c-0.1-0.3-0.2-0.7-0.4-1.2c0-0.1-0.1-0.3-0.1-0.5c0-0.2,0-0.4,0-0.5c-0.1,0.2-0.2,0.3-0.3,0.5
			s-0.2,0.3-0.3,0.4c-0.4,0.4-0.9,0.7-1.3,1c-0.6,0.4-1.1,0.6-1.5,0.6c-0.5,0-1-0.2-1.3-0.7c-0.6-0.5-0.9-1.1-0.9-1.7
			c0-0.1,0-0.3,0.1-0.5c0-0.7,0.1-1.4,0.3-2c0.2-0.6,0.5-1.4,0.9-2.4l0.8-1.7l0.4-0.9c0.1,0,0.2-0.1,0.4-0.1c0.3,0,0.6,0.1,0.8,0.2
			c0.3,0.1,0.4,0.3,0.4,0.4c0.1,0.1,0.1,0.2,0.1,0.4c0,0.6-0.3,1.4-0.8,2.4l-0.2,0.5c-0.3,0.8-0.6,1.4-0.7,1.9
			c-0.1,0.4-0.2,0.8-0.2,1.1s0.1,0.5,0.3,0.6c0.1,0.1,0.2,0.1,0.3,0.1c0.4,0,0.8-0.3,1.4-0.9c0.5-0.6,1.1-1.5,1.6-2.9
			c0.3-0.6,0.4-1.3,0.5-2c0-0.2,0-0.4,0.2-0.7c0.2-0.2,0.3-0.4,0.6-0.6c0.1-0.1,0.2-0.2,0.3-0.3s0.2-0.1,0.3,0l0.4,0
			c0.1,0,0.1,0.1,0.3,0.3s0.2,0.3,0.3,0.3c0.2,0.1,0.3,0.4,0.3,0.9c0,0.6-0.2,1.5-0.7,2.5c-0.4,0.7-0.6,1.3-0.7,1.7
			c-0.1,0.4-0.2,0.8-0.2,1.2c0,0.4,0,0.7,0.1,0.9c0.1,0.2,0.2,0.4,0.5,0.7c0.3,0.2,0.4,0.7,0.4,1.5c0,0.1-0.1,0.2-0.3,0.3
			c-0.2,0.1-0.4,0.1-0.6,0.1c-0.4,0-0.8-0.1-1-0.3C135.5,150.3,135.4,150.1,135.3,149.8z"/>
		<path class="st0" d="M139.3,149.2c-0.2-0.2-0.2-0.4-0.1-0.8c0.1-0.6,0.2-1.4,0.4-2.2l0.1-0.6c0.1-0.5,0.3-1.5,0.9-3
			c0.5-1.5,1-2.5,1.3-3c0.2-0.2,0.5-0.3,1-0.3c0.4,0,0.6,0.1,0.8,0.2c0.2,0.1,0.2,0.3,0.2,0.6c0,0.4-0.3,1.2-0.8,2.3l-0.3,0.6
			c-0.1,0.2-0.2,0.5-0.3,0.7c-0.1,0.2-0.1,0.3,0,0.3c0.2-0.4,0.7-0.8,1.5-1.5s1.3-1,1.6-1.1c0.1-0.1,0.3-0.1,0.5-0.2
			c0.2-0.1,0.3-0.1,0.4-0.2c0.3-0.2,0.7-0.3,1.1-0.3c0.3,0,0.6,0,0.8,0.1s0.4,0.2,0.4,0.4c0,0.1,0.1,0.2,0.2,0.3s0.1,0.1,0.2,0.1
			c0.1,0,0.1,0,0.1,0.1c0,0,0,0.1,0,0.1c0,0.1-0.1,0.3-0.4,0.6s-0.5,0.4-0.8,0.4c-0.2,0-0.4,0.1-0.6,0.1c-0.2,0.1-0.4,0.2-0.7,0.3
			l-0.7,0.4c-0.6,0.3-1.2,0.6-1.6,0.9c-0.4,0.3-0.9,0.7-1.3,1.2c-0.1,0.1-0.2,0.2-0.4,0.4c-0.2,0.2-0.3,0.4-0.5,0.6
			c-0.1,0.1-0.3,0.5-0.4,1c-0.1,0.6-0.2,0.9-0.2,1c0,0.1-0.1,0.2-0.1,0.3s-0.1,0.3-0.3,0.4c-0.2,0.2-0.3,0.4-0.4,0.4
			c-0.1,0.1-0.2,0.1-0.4,0.1c-0.2,0-0.4-0.1-0.6-0.4C139.7,149.5,139.5,149.3,139.3,149.2z"/>
		<path class="st0" d="M151.5,150.2c-0.2,0-0.5,0-0.7-0.1c-0.2,0-0.3-0.1-0.3-0.2c0-0.1,0-0.1,0-0.1c0,0-0.1,0-0.1,0
			c-0.1-0.1-0.2-0.2-0.4-0.3c-0.2-0.1-0.4-0.2-0.5-0.3c-0.2-0.3-0.3-0.7-0.3-1c0-0.4,0.1-0.9,0.3-1.7c0-0.7,0.3-1.5,0.8-2.4
			s1.1-1.7,1.9-2.5c0.7-0.8,1.4-1.3,2-1.7c0.3-0.3,0.7-0.4,1.2-0.4c0.4,0,0.7,0.1,1,0.3c0.2,0.1,0.5,0.5,0.9,1
			c0.4,0.5,0.6,0.9,0.8,1.3c0,0.1,0.1,0.3,0.2,0.5c0.1,0.2,0.1,0.5,0.1,0.8l-0.1,0.8c-0.2,0.8-0.3,1.5-0.3,2.1c0,0.3,0,0.5,0.1,0.6
			c0.1,0.2,0.2,0.2,0.3,0.2c0.1,0,0.2,0,0.3-0.1c0.1-0.1,0.2-0.1,0.4-0.1c0.2,0,0.4,0.1,0.6,0.2c0.2,0.2,0.3,0.3,0.3,0.6
			c0,0.2,0,0.4-0.1,0.5c-0.2,0.4-0.5,0.7-0.9,1c-0.5,0.3-0.9,0.4-1.3,0.4c-0.3,0-0.6-0.2-0.9-0.5c-0.3-0.3-0.5-0.8-0.7-1.3l-0.2-0.6
			l-1,0.9l-0.6,0.6c-0.3,0.3-0.5,0.5-0.5,0.5c-0.1,0.1-0.3,0.3-0.5,0.4c-0.2,0.1-0.6,0.3-1.1,0.5
			C151.8,150.1,151.6,150.2,151.5,150.2z M153.6,146.7c0.2-0.3,0.5-0.7,0.9-1.2c0.1-0.1,0.1-0.2,0.2-0.4c0.1-0.1,0.2-0.2,0.3-0.4
			c0.3-0.4,0.5-0.8,0.7-1c0.1-0.3,0.2-0.5,0.3-0.8c-0.1-0.2-0.2-0.5-0.3-0.7c-0.1-0.2-0.3-0.3-0.4-0.3c-0.5,0-1.2,0.6-2.1,1.8
			c-0.1,0.1-0.2,0.4-0.4,0.7s-0.3,0.6-0.4,0.7c-0.1,0.1-0.2,0.4-0.4,0.9c-0.2,0.5-0.2,0.8-0.2,1c0,0.4,0.1,0.6,0.4,0.6
			c0.2,0,0.4-0.1,0.6-0.2C153.1,147.2,153.4,147,153.6,146.7z"/>
	</g>
	<g>
		<path class="st0" d="M43.7,41.8c-0.2-0.1-0.5-0.2-0.6-0.5c-0.1-0.3-0.2-0.6-0.1-0.8c0.1-0.4,0.5-0.7,1.1-0.9
			c0.3-0.1,0.6-0.1,0.8-0.1c0.1,0,0.3,0.2,0.5,0.4c0.3,0.4,0.5,0.8,0.4,1.1c-0.1,0.4-0.6,0.7-1.3,0.9C44.1,41.8,43.9,41.8,43.7,41.8
			z"/>
		<path class="st0" d="M49.2,43.6c-0.2-0.1-0.4-0.3-0.6-0.5c-0.1-0.3-0.2-0.6-0.1-0.8c0.1-0.4,0.5-0.7,1.2-0.9
			c0.3-0.1,0.6-0.1,0.8-0.1c0.1,0,0.3,0.2,0.5,0.4c0.3,0.4,0.4,0.8,0.3,1.1c-0.1,0.4-0.6,0.7-1.3,0.8C49.6,43.7,49.4,43.6,49.2,43.6
			z"/>
		<path class="st0" d="M54.7,45.7c-0.2-0.1-0.4-0.3-0.6-0.6c-0.1-0.3-0.1-0.6,0-0.8c0.1-0.4,0.6-0.6,1.2-0.8c0.4-0.1,0.6-0.1,0.8,0
			c0.1,0,0.3,0.2,0.5,0.4c0.3,0.5,0.4,0.9,0.3,1.2c-0.2,0.4-0.6,0.7-1.4,0.8C55.1,45.8,54.8,45.7,54.7,45.7z"/>
		<path class="st0" d="M60.1,48c-0.2-0.1-0.4-0.3-0.6-0.6c-0.1-0.3-0.1-0.6,0-0.8c0.2-0.4,0.6-0.6,1.3-0.8c0.4-0.1,0.6-0.1,0.8,0
			c0.1,0,0.3,0.2,0.5,0.4c0.3,0.5,0.3,0.9,0.2,1.2c-0.2,0.4-0.6,0.6-1.4,0.7C60.5,48.1,60.2,48.1,60.1,48z"/>
		<path class="st0" d="M65.4,50.5c-0.2-0.1-0.4-0.3-0.5-0.6c-0.1-0.3-0.1-0.6,0-0.8c0.2-0.4,0.6-0.6,1.3-0.7c0.4-0.1,0.6,0,0.8,0
			c0.1,0.1,0.3,0.2,0.5,0.4c0.3,0.5,0.3,0.9,0.2,1.2c-0.2,0.4-0.7,0.6-1.4,0.7C65.8,50.6,65.5,50.6,65.4,50.5z"/>
		<path class="st0" d="M70.6,53.2c-0.2-0.1-0.4-0.3-0.5-0.6C70,52.3,70,52,70.1,51.8c0.2-0.4,0.6-0.6,1.3-0.7c0.4,0,0.6,0,0.8,0.1
			c0.1,0.1,0.2,0.2,0.4,0.5c0.2,0.5,0.3,0.9,0.1,1.2c-0.2,0.4-0.7,0.6-1.4,0.6C70.9,53.4,70.7,53.3,70.6,53.2z"/>
		<path class="st0" d="M75.7,56.2c-0.2-0.1-0.4-0.3-0.5-0.7c-0.1-0.3,0-0.6,0.1-0.8c0.2-0.3,0.6-0.6,1.3-0.6c0.4,0,0.6,0,0.8,0.1
			c0.1,0.1,0.2,0.2,0.4,0.5c0.2,0.5,0.2,0.9,0.1,1.2c-0.2,0.4-0.7,0.6-1.5,0.5C76,56.3,75.8,56.3,75.7,56.2z"/>
		<path class="st0" d="M80.6,59.3c-0.2-0.1-0.4-0.4-0.5-0.7c-0.1-0.3,0-0.6,0.1-0.8c0.2-0.3,0.7-0.5,1.4-0.6c0.4,0,0.6,0,0.7,0.1
			c0.1,0.1,0.2,0.2,0.4,0.5c0.2,0.5,0.2,0.9,0,1.2c-0.2,0.4-0.7,0.5-1.5,0.5C81,59.5,80.8,59.4,80.6,59.3z"/>
		<path class="st0" d="M85.5,62.6c-0.2-0.1-0.4-0.4-0.4-0.7c0-0.3,0-0.6,0.1-0.8c0.2-0.3,0.7-0.5,1.4-0.5c0.4,0,0.6,0,0.7,0.1
			c0.1,0.1,0.2,0.2,0.4,0.5c0.2,0.5,0.2,0.9,0,1.2c-0.3,0.4-0.8,0.5-1.5,0.4C85.8,62.8,85.6,62.7,85.5,62.6z"/>
		<path class="st0" d="M90.2,66.1c-0.2-0.2-0.3-0.4-0.4-0.7c0-0.3,0-0.6,0.2-0.8c0.2-0.3,0.7-0.5,1.4-0.5c0.4,0,0.6,0.1,0.7,0.2
			c0.1,0.1,0.2,0.2,0.4,0.5c0.2,0.5,0.1,0.9-0.1,1.2c-0.3,0.4-0.8,0.5-1.5,0.4C90.5,66.3,90.3,66.2,90.2,66.1z"/>
		<path class="st0" d="M94.8,69.8c-0.2-0.2-0.3-0.4-0.4-0.7c0-0.3,0-0.6,0.2-0.8c0.3-0.3,0.7-0.4,1.4-0.4c0.4,0,0.6,0.1,0.7,0.2
			c0.1,0.1,0.2,0.3,0.3,0.5c0.1,0.5,0.1,0.9-0.1,1.2c-0.3,0.3-0.8,0.5-1.5,0.3C95.1,70,94.9,69.9,94.8,69.8z"/>
		<path class="st0" d="M99.2,73.6c-0.2-0.2-0.3-0.4-0.4-0.7c0-0.3,0.1-0.6,0.2-0.8c0.3-0.3,0.7-0.4,1.4-0.4c0.4,0,0.6,0.1,0.7,0.2
			c0.1,0.1,0.2,0.3,0.3,0.5c0.1,0.5,0.1,0.9-0.2,1.2c-0.3,0.3-0.8,0.4-1.5,0.3C99.5,73.8,99.3,73.7,99.2,73.6z"/>
		<path class="st0" d="M103.5,77.6c-0.2-0.2-0.3-0.4-0.3-0.8c0-0.3,0.1-0.6,0.3-0.8c0.3-0.3,0.8-0.4,1.4-0.3
			c0.4,0.1,0.6,0.1,0.7,0.3c0.1,0.1,0.2,0.3,0.3,0.6c0.1,0.5,0,0.9-0.2,1.2c-0.3,0.3-0.8,0.4-1.6,0.2
			C103.8,77.9,103.6,77.7,103.5,77.6z"/>
		<path class="st0" d="M107.6,81.8c-0.2-0.2-0.3-0.4-0.3-0.8c0-0.3,0.1-0.6,0.3-0.7c0.3-0.3,0.8-0.4,1.5-0.3
			c0.4,0.1,0.6,0.2,0.7,0.3c0.1,0.1,0.2,0.3,0.3,0.6c0.1,0.5,0,0.9-0.2,1.2c-0.3,0.3-0.8,0.4-1.6,0.1
			C107.9,82,107.7,81.9,107.6,81.8z"/>
		<path class="st0" d="M111.6,86.1c-0.2-0.2-0.3-0.4-0.3-0.8c0-0.3,0.1-0.6,0.3-0.7c0.3-0.3,0.8-0.3,1.5-0.2
			c0.4,0.1,0.6,0.2,0.7,0.3c0.1,0.1,0.2,0.3,0.3,0.6c0.1,0.5,0,0.9-0.3,1.2c-0.3,0.3-0.9,0.3-1.6,0.1
			C111.9,86.4,111.7,86.2,111.6,86.1z"/>
		<path class="st0" d="M115.4,90.6c-0.2-0.2-0.2-0.5-0.2-0.8c0-0.3,0.2-0.6,0.3-0.7c0.3-0.3,0.8-0.3,1.5-0.1
			c0.3,0.1,0.6,0.2,0.7,0.3c0.1,0.1,0.2,0.3,0.2,0.6c0,0.5-0.1,0.9-0.3,1.1c-0.3,0.3-0.9,0.3-1.6,0
			C115.7,90.9,115.5,90.7,115.4,90.6z"/>
		<path class="st0" d="M119,95.2c-0.2-0.2-0.2-0.5-0.2-0.8c0.1-0.3,0.2-0.6,0.4-0.7c0.3-0.2,0.8-0.3,1.5-0.1
			c0.3,0.1,0.6,0.2,0.7,0.4c0.1,0.1,0.1,0.3,0.2,0.6c0,0.5-0.1,0.9-0.4,1.1c-0.4,0.3-0.9,0.3-1.6,0C119.3,95.5,119.1,95.3,119,95.2z
			"/>
		<path class="st0" d="M122.5,99.9c-0.1-0.2-0.2-0.5-0.2-0.8c0.1-0.3,0.2-0.5,0.4-0.7c0.3-0.2,0.8-0.2,1.5,0
			c0.3,0.1,0.6,0.3,0.7,0.4c0.1,0.1,0.1,0.3,0.2,0.6c0,0.5-0.1,0.9-0.4,1.1c-0.4,0.3-0.9,0.2-1.6-0.1
			C122.7,100.2,122.6,100.1,122.5,99.9z"/>
		<path class="st0" d="M125.7,104.8c-0.1-0.2-0.2-0.5-0.2-0.8c0.1-0.3,0.2-0.5,0.4-0.7c0.3-0.2,0.8-0.2,1.5,0
			c0.3,0.1,0.5,0.3,0.6,0.4c0.1,0.1,0.1,0.3,0.2,0.6c0,0.5-0.2,0.9-0.5,1.1c-0.4,0.2-0.9,0.2-1.6-0.2
			C126,105.1,125.8,105,125.7,104.8z"/>
		<path class="st0" d="M128.8,109.8c-0.1-0.2-0.2-0.5-0.1-0.8c0.1-0.3,0.2-0.5,0.4-0.7c0.3-0.2,0.8-0.2,1.5,0.1
			c0.3,0.1,0.5,0.3,0.6,0.4c0.1,0.1,0.1,0.3,0.1,0.6c0,0.5-0.2,0.9-0.5,1.1c-0.4,0.2-0.9,0.2-1.6-0.2
			C129.1,110.1,128.9,110,128.8,109.8z"/>
		<path class="st0" d="M131.8,114.9c-0.1-0.2-0.2-0.5-0.1-0.8c0.1-0.3,0.3-0.5,0.5-0.6c0.3-0.2,0.8-0.2,1.5,0.1
			c0.3,0.2,0.5,0.3,0.6,0.5c0.1,0.1,0.1,0.3,0.1,0.6c-0.1,0.5-0.2,0.9-0.5,1.1c-0.4,0.2-0.9,0.1-1.5-0.3
			C132,115.3,131.8,115.1,131.8,114.9z"/>
		<path class="st0" d="M134.5,120.1c-0.1-0.2-0.1-0.5-0.1-0.8c0.1-0.3,0.3-0.5,0.5-0.6c0.4-0.2,0.8-0.1,1.5,0.2
			c0.3,0.2,0.5,0.3,0.6,0.5c0.1,0.1,0.1,0.3,0.1,0.6c-0.1,0.5-0.3,0.9-0.6,1c-0.4,0.2-0.9,0.1-1.5-0.3
			C134.7,120.5,134.6,120.3,134.5,120.1z"/>
		<path class="st0" d="M137,125.4c-0.1-0.2-0.1-0.5,0-0.8c0.1-0.3,0.3-0.5,0.5-0.6c0.4-0.2,0.8-0.1,1.5,0.2c0.3,0.2,0.5,0.3,0.6,0.5
			c0,0.1,0.1,0.3,0.1,0.6c-0.1,0.5-0.3,0.9-0.6,1c-0.4,0.2-0.9,0.1-1.5-0.4C137.3,125.8,137.1,125.6,137,125.4z"/>
		<path class="st0" d="M139.4,130.8c-0.1-0.2-0.1-0.5,0-0.8c0.1-0.3,0.3-0.5,0.5-0.6c0.4-0.2,0.9-0.1,1.4,0.3
			c0.3,0.2,0.5,0.4,0.6,0.5c0,0.1,0.1,0.3,0.1,0.6c-0.1,0.5-0.3,0.9-0.6,1c-0.4,0.2-0.9,0-1.5-0.4
			C139.6,131.1,139.5,130.9,139.4,130.8z"/>
	</g>
</g>
</svg>
