<?xml version="1.0" encoding="UTF-8" standalone="no"?>
<!DOCTYPE svg PUBLIC "-//W3C//DTD SVG 1.1//EN" "http://www.w3.org/Graphics/SVG/1.1/DTD/svg11.dtd">
<svg version="1.1" xmlns="http://www.w3.org/2000/svg" xmlns:xlink="http://www.w3.org/1999/xlink" preserveAspectRatio="xMidYMid meet"  width="147.29" height="25.85"><defs><path d="M75.45 3.59L65.5 3.59L65.5 8.66L75.25 8.66L75.25 11.67L65.5 11.67L65.5 20.11L62.07 20.11L62.07 0.57L75.45 0.57L75.45 3.59Z" id="b8icfU4ux3"></path><path d="M75.45 3.59L65.5 3.59L65.5 8.66L75.25 8.66L75.25 11.67L65.5 11.67L65.5 20.11L62.07 20.11L62.07 0.57L75.45 0.57L75.45 3.59Z" id="iX3ssKcjg"></path><path d="M75.45 3.59L65.5 3.59L65.5 8.66L75.25 8.66L75.25 11.67L65.5 11.67L65.5 20.11L62.07 20.11L62.07 0.57L75.45 0.57L75.45 3.59Z" id="aHcbOyVNp"></path><path d="M75.45 3.59L65.5 3.59L65.5 8.66L75.25 8.66L75.25 11.67L65.5 11.67L65.5 20.11L62.07 20.11L62.07 0.57L75.45 0.57L75.45 3.59Z" id="aqd8Rxlvq"></path><path d="M80.78 13.69C80.98 16 82.97 17.72 85.29 17.58C86.76 17.58 88.2 17.02 89.29 16.04C89.43 16.24 90.56 17.85 90.7 18.05C89.13 19.45 87.06 20.19 84.97 20.11C80.86 20.12 77.53 16.82 77.52 12.71C77.5 8.68 80.7 5.38 84.73 5.26C88.98 5.26 91.7 8.51 91.7 12.97C91.7 13.02 91.7 13.26 91.7 13.69C85.14 13.69 81.5 13.69 80.78 13.69ZM84.73 7.78C82.59 7.73 80.83 9.4 80.74 11.53C80.74 11.53 87.91 11.53 88.71 11.53C88.7 9.44 86.99 7.76 84.9 7.77C84.84 7.77 84.79 7.77 84.73 7.78Z" id="d1AO5rmmyV"></path><path d="M80.78 13.69C80.98 16 82.97 17.72 85.29 17.58C86.76 17.58 88.2 17.02 89.29 16.04C89.43 16.24 90.56 17.85 90.7 18.05C89.13 19.45 87.06 20.19 84.97 20.11C80.86 20.12 77.53 16.82 77.52 12.71C77.5 8.68 80.7 5.38 84.73 5.26C88.98 5.26 91.7 8.51 91.7 12.97C91.7 13.02 91.7 13.26 91.7 13.69C85.14 13.69 81.5 13.69 80.78 13.69ZM84.73 7.78C82.59 7.73 80.83 9.4 80.74 11.53C80.74 11.53 87.91 11.53 88.71 11.53C88.7 9.44 86.99 7.76 84.9 7.77C84.84 7.77 84.79 7.77 84.73 7.78Z" id="eaS9ENDwL"></path><path d="M80.78 13.69C80.98 16 82.97 17.72 85.29 17.58C86.76 17.58 88.2 17.02 89.29 16.04C89.43 16.24 90.56 17.85 90.7 18.05C89.13 19.45 87.06 20.19 84.97 20.11C80.86 20.12 77.53 16.82 77.52 12.71C77.5 8.68 80.7 5.38 84.73 5.26C88.98 5.26 91.7 8.51 91.7 12.97C91.7 13.02 91.7 13.26 91.7 13.69C85.14 13.69 81.5 13.69 80.78 13.69ZM84.73 7.78C82.59 7.73 80.83 9.4 80.74 11.53C80.74 11.53 87.91 11.53 88.71 11.53C88.7 9.44 86.99 7.76 84.9 7.77C84.84 7.77 84.79 7.77 84.73 7.78Z" id="euJZZ0UBi"></path><path d="M80.78 13.69C80.98 16 82.97 17.72 85.29 17.58C86.76 17.58 88.2 17.02 89.29 16.04C89.43 16.24 90.56 17.85 90.7 18.05C89.13 19.45 87.06 20.19 84.97 20.11C80.86 20.12 77.53 16.82 77.52 12.71C77.5 8.68 80.7 5.38 84.73 5.26C88.98 5.26 91.7 8.51 91.7 12.97C91.7 13.02 91.7 13.26 91.7 13.69C85.14 13.69 81.5 13.69 80.78 13.69ZM84.73 7.78C82.59 7.73 80.83 9.4 80.74 11.53C80.74 11.53 87.91 11.53 88.71 11.53C88.7 9.44 86.99 7.76 84.9 7.77C84.84 7.77 84.79 7.77 84.73 7.78Z" id="b1cDDXLlP2"></path><path d="M97.08 13.69C97.29 16 99.29 17.72 101.59 17.58C103.08 17.58 104.51 17.02 105.61 16.04C105.75 16.24 106.86 17.85 107.01 18.05C105.43 19.45 103.38 20.19 101.27 20.11C97.17 20.12 93.83 16.82 93.82 12.71C93.8 8.68 97.01 5.38 101.03 5.26C105.29 5.26 108 8.51 108 12.97C108 13.02 108 13.26 108 13.69C101.46 13.69 97.82 13.69 97.08 13.69ZM101.03 7.78C98.92 7.73 97.13 9.4 97.05 11.53C97.05 11.53 104.22 11.53 105.02 11.53C105.01 9.44 103.29 7.76 101.21 7.77C101.15 7.77 101.1 7.77 101.03 7.78Z" id="alh4qi1Jn"></path><path d="M97.08 13.69C97.29 16 99.29 17.72 101.59 17.58C103.08 17.58 104.51 17.02 105.61 16.04C105.75 16.24 106.86 17.85 107.01 18.05C105.43 19.45 103.38 20.19 101.27 20.11C97.17 20.12 93.83 16.82 93.82 12.71C93.8 8.68 97.01 5.38 101.03 5.26C105.29 5.26 108 8.51 108 12.97C108 13.02 108 13.26 108 13.69C101.46 13.69 97.82 13.69 97.08 13.69ZM101.03 7.78C98.92 7.73 97.13 9.4 97.05 11.53C97.05 11.53 104.22 11.53 105.02 11.53C105.01 9.44 103.29 7.76 101.21 7.77C101.15 7.77 101.1 7.77 101.03 7.78Z" id="fx51kKuAg"></path><path d="M97.08 13.69C97.29 16 99.29 17.72 101.59 17.58C103.08 17.58 104.51 17.02 105.61 16.04C105.75 16.24 106.86 17.85 107.01 18.05C105.43 19.45 103.38 20.19 101.27 20.11C97.17 20.12 93.83 16.82 93.82 12.71C93.8 8.68 97.01 5.38 101.03 5.26C105.29 5.26 108 8.51 108 12.97C108 13.02 108 13.26 108 13.69C101.46 13.69 97.82 13.69 97.08 13.69ZM101.03 7.78C98.92 7.73 97.13 9.4 97.05 11.53C97.05 11.53 104.22 11.53 105.02 11.53C105.01 9.44 103.29 7.76 101.21 7.77C101.15 7.77 101.1 7.77 101.03 7.78Z" id="aQpz4kvK8"></path><path d="M97.08 13.69C97.29 16 99.29 17.72 101.59 17.58C103.08 17.58 104.51 17.02 105.61 16.04C105.75 16.24 106.86 17.85 107.01 18.05C105.43 19.45 103.38 20.19 101.27 20.11C97.17 20.12 93.83 16.82 93.82 12.71C93.8 8.68 97.01 5.38 101.03 5.26C105.29 5.26 108 8.51 108 12.97C108 13.02 108 13.26 108 13.69C101.46 13.69 97.82 13.69 97.08 13.69ZM101.03 7.78C98.92 7.73 97.13 9.4 97.05 11.53C97.05 11.53 104.22 11.53 105.02 11.53C105.01 9.44 103.29 7.76 101.21 7.77C101.15 7.77 101.1 7.77 101.03 7.78Z" id="b3ASDAq3E2"></path><path d="M114.12 20.11L111.05 20.11L111.05 0.57L114.12 0.57L114.12 20.11Z" id="aaMBnv29Z"></path><path d="M114.12 20.11L111.05 20.11L111.05 0.57L114.12 0.57L114.12 20.11Z" id="b1Lc1MWAb5"></path><path d="M114.12 20.11L111.05 20.11L111.05 0.57L114.12 0.57L114.12 20.11Z" id="gCCRFK9I"></path><path d="M114.12 20.11L111.05 20.11L111.05 0.57L114.12 0.57L114.12 20.11Z" id="baBexc693"></path><path d="M119.62 3.79C119.62 3.79 119.62 3.79 119.62 3.79C118.58 3.78 117.74 2.95 117.73 1.89C117.73 0.84 118.58 0 119.62 0C120.68 0 121.53 0.84 121.53 1.89C121.53 2.95 120.68 3.79 119.62 3.79ZM121.19 20.11L118.12 20.11L118.11 5.97L121.19 5.97L121.19 20.11Z" id="a1qEylHTBL"></path><path d="M119.62 3.79C119.62 3.79 119.62 3.79 119.62 3.79C118.58 3.78 117.74 2.95 117.73 1.89C117.73 0.84 118.58 0 119.62 0C120.68 0 121.53 0.84 121.53 1.89C121.53 2.95 120.68 3.79 119.62 3.79ZM121.19 20.11L118.12 20.11L118.11 5.97L121.19 5.97L121.19 20.11Z" id="bWizgBYTZ"></path><path d="M119.62 3.79C119.62 3.79 119.62 3.79 119.62 3.79C118.58 3.78 117.74 2.95 117.73 1.89C117.73 0.84 118.58 0 119.62 0C120.68 0 121.53 0.84 121.53 1.89C121.53 2.95 120.68 3.79 119.62 3.79ZM121.19 20.11L118.12 20.11L118.11 5.97L121.19 5.97L121.19 20.11Z" id="cqued6OkL"></path><path d="M119.62 3.79C119.62 3.79 119.62 3.79 119.62 3.79C118.58 3.78 117.74 2.95 117.73 1.89C117.73 0.84 118.58 0 119.62 0C120.68 0 121.53 0.84 121.53 1.89C121.53 2.95 120.68 3.79 119.62 3.79ZM121.19 20.11L118.12 20.11L118.11 5.97L121.19 5.97L121.19 20.11Z" id="ekP4ymTbU"></path><path d="M123.44 5.61L125.79 5.61L125.79 1.75L128.86 1.75L128.86 5.61L131.73 5.61C131.73 7.23 131.73 8.12 131.73 8.3C130 8.3 129.05 8.3 128.86 8.3C128.86 12.75 128.86 15.22 128.86 15.72C128.86 16.68 129.33 17.38 130.2 17.38C130.71 17.4 131.21 17.21 131.58 16.88C131.65 17.11 132.24 18.96 132.32 19.2C131.5 19.86 130.46 20.2 129.42 20.1C127.63 20.31 126 19.04 125.78 17.25C125.75 16.99 125.75 16.74 125.78 16.47C125.78 16.47 125.78 13.75 125.78 8.3C125.47 8.3 124.68 8.3 123.44 8.3C123.44 7.94 123.44 7.05 123.44 5.61Z" id="a28VCk9kCE"></path><path d="M123.44 5.61L125.79 5.61L125.79 1.75L128.86 1.75L128.86 5.61L131.73 5.61C131.73 7.23 131.73 8.12 131.73 8.3C130 8.3 129.05 8.3 128.86 8.3C128.86 12.75 128.86 15.22 128.86 15.72C128.86 16.68 129.33 17.38 130.2 17.38C130.71 17.4 131.21 17.21 131.58 16.88C131.65 17.11 132.24 18.96 132.32 19.2C131.5 19.86 130.46 20.2 129.42 20.1C127.63 20.31 126 19.04 125.78 17.25C125.75 16.99 125.75 16.74 125.78 16.47C125.78 16.47 125.78 13.75 125.78 8.3C125.47 8.3 124.68 8.3 123.44 8.3C123.44 7.94 123.44 7.05 123.44 5.61Z" id="bbbtdIzEzy"></path><path d="M123.44 5.61L125.79 5.61L125.79 1.75L128.86 1.75L128.86 5.61L131.73 5.61C131.73 7.23 131.73 8.12 131.73 8.3C130 8.3 129.05 8.3 128.86 8.3C128.86 12.75 128.86 15.22 128.86 15.72C128.86 16.68 129.33 17.38 130.2 17.38C130.71 17.4 131.21 17.21 131.58 16.88C131.65 17.11 132.24 18.96 132.32 19.2C131.5 19.86 130.46 20.2 129.42 20.1C127.63 20.31 126 19.04 125.78 17.25C125.75 16.99 125.75 16.74 125.78 16.47C125.78 16.47 125.78 13.75 125.78 8.3C125.47 8.3 124.68 8.3 123.44 8.3C123.44 7.94 123.44 7.05 123.44 5.61Z" id="b2IEnxjKg"></path><path d="M123.44 5.61L125.79 5.61L125.79 1.75L128.86 1.75L128.86 5.61L131.73 5.61C131.73 7.23 131.73 8.12 131.73 8.3C130 8.3 129.05 8.3 128.86 8.3C128.86 12.75 128.86 15.22 128.86 15.72C128.86 16.68 129.33 17.38 130.2 17.38C130.71 17.4 131.21 17.21 131.58 16.88C131.65 17.11 132.24 18.96 132.32 19.2C131.5 19.86 130.46 20.2 129.42 20.1C127.63 20.31 126 19.04 125.78 17.25C125.75 16.99 125.75 16.74 125.78 16.47C125.78 16.47 125.78 13.75 125.78 8.3C125.47 8.3 124.68 8.3 123.44 8.3C123.44 7.94 123.44 7.05 123.44 5.61Z" id="a1a7rZZ3o1"></path><path d="M132.45 5.97C132.67 5.97 133.76 5.97 135.73 5.97L139.86 16.57C142.33 10.21 143.71 6.67 143.99 5.97C145.98 5.97 147.08 5.97 147.29 5.97C143.2 15.98 140.93 21.53 140.47 22.65C139.76 24.7 137.77 26.01 135.62 25.84C135.03 25.84 134.45 25.77 133.88 25.64C133.88 25.36 133.88 23.17 133.88 22.89C134.42 23.05 134.97 23.12 135.53 23.12C136.4 23.22 137.24 22.72 137.56 21.89C137.6 21.78 137.84 21.24 138.25 20.28C137.87 19.32 135.93 14.55 132.45 5.97Z" id="cbhl7So4K"></path><path d="M132.45 5.97C132.67 5.97 133.76 5.97 135.73 5.97L139.86 16.57C142.33 10.21 143.71 6.67 143.99 5.97C145.98 5.97 147.08 5.97 147.29 5.97C143.2 15.98 140.93 21.53 140.47 22.65C139.76 24.7 137.77 26.01 135.62 25.84C135.03 25.84 134.45 25.77 133.88 25.64C133.88 25.36 133.88 23.17 133.88 22.89C134.42 23.05 134.97 23.12 135.53 23.12C136.4 23.22 137.24 22.72 137.56 21.89C137.6 21.78 137.84 21.24 138.25 20.28C137.87 19.32 135.93 14.55 132.45 5.97Z" id="bUUlF0DQ"></path><path d="M132.45 5.97C132.67 5.97 133.76 5.97 135.73 5.97L139.86 16.57C142.33 10.21 143.71 6.67 143.99 5.97C145.98 5.97 147.08 5.97 147.29 5.97C143.2 15.98 140.93 21.53 140.47 22.65C139.76 24.7 137.77 26.01 135.62 25.84C135.03 25.84 134.45 25.77 133.88 25.64C133.88 25.36 133.88 23.17 133.88 22.89C134.42 23.05 134.97 23.12 135.53 23.12C136.4 23.22 137.24 22.72 137.56 21.89C137.6 21.78 137.84 21.24 138.25 20.28C137.87 19.32 135.93 14.55 132.45 5.97Z" id="a91JAzLY4"></path><path d="M132.45 5.97C132.67 5.97 133.76 5.97 135.73 5.97L139.86 16.57C142.33 10.21 143.71 6.67 143.99 5.97C145.98 5.97 147.08 5.97 147.29 5.97C143.2 15.98 140.93 21.53 140.47 22.65C139.76 24.7 137.77 26.01 135.62 25.84C135.03 25.84 134.45 25.77 133.88 25.64C133.88 25.36 133.88 23.17 133.88 22.89C134.42 23.05 134.97 23.12 135.53 23.12C136.4 23.22 137.24 22.72 137.56 21.89C137.6 21.78 137.84 21.24 138.25 20.28C137.87 19.32 135.93 14.55 132.45 5.97Z" id="b6gIeldwWq"></path><path d="M13.22 5.45L13.22 0.43L24.53 7.66L24.53 12.88L13.22 20.11L13.22 15.08L21.58 10.3L13.22 5.45Z" id="b3BEuKAjjw"></path><path d="M13.22 5.45L13.22 0.43L24.53 7.66L24.53 12.88L13.22 20.11L13.22 15.08L21.58 10.3L13.22 5.45Z" id="adr8x13uW"></path><path d="M13.22 5.45L13.22 0.43L24.53 7.66L24.53 12.88L13.22 20.11L13.22 15.08L21.58 10.3L13.22 5.45Z" id="aEzk5LGah"></path><path d="M13.22 5.45L13.22 0.43L24.53 7.66L24.53 12.88L13.22 20.11L13.22 15.08L21.58 10.3L13.22 5.45Z" id="amjZN9aTY"></path><path d="M37.74 15.08L37.74 20.1L26.43 12.87L26.43 7.66L37.74 0.43L37.74 5.45L29.38 10.22L37.74 15.08Z" id="aC1D9Btdd"></path><path d="M37.74 15.08L37.74 20.1L26.43 12.87L26.43 7.66L37.74 0.43L37.74 5.45L29.38 10.22L37.74 15.08Z" id="aEJ0Q03nc"></path><path d="M37.74 15.08L37.74 20.1L26.43 12.87L26.43 7.66L37.74 0.43L37.74 5.45L29.38 10.22L37.74 15.08Z" id="b1HSe2VnI2"></path><path d="M37.74 15.08L37.74 20.1L26.43 12.87L26.43 7.66L37.74 0.43L37.74 5.45L29.38 10.22L37.74 15.08Z" id="d4K4YANxD"></path><path d="M39.65 5.45L39.65 0.43L50.95 7.66L50.95 12.88L39.65 20.11L39.65 15.08L48 10.3L39.65 5.45Z" id="a12VNfNj5N"></path><path d="M39.65 5.45L39.65 0.43L50.95 7.66L50.95 12.88L39.65 20.11L39.65 15.08L48 10.3L39.65 5.45Z" id="b6y7Skb55r"></path><path d="M39.65 5.45L39.65 0.43L50.95 7.66L50.95 12.88L39.65 20.11L39.65 15.08L48 10.3L39.65 5.45Z" id="g2alkw1aJ8"></path><path d="M39.65 5.45L39.65 0.43L50.95 7.66L50.95 12.88L39.65 20.11L39.65 15.08L48 10.3L39.65 5.45Z" id="bOgXdVccN"></path><path d="M11.31 15.08L11.31 20.1L0 12.87L0 7.66L11.31 0.43L11.31 5.45L2.95 10.22L11.31 15.08Z" id="bJgMAmemT"></path><path d="M11.31 15.08L11.31 20.1L0 12.87L0 7.66L11.31 0.43L11.31 5.45L2.95 10.22L11.31 15.08Z" id="abDPKyW6Y"></path><path d="M11.31 15.08L11.31 20.1L0 12.87L0 7.66L11.31 0.43L11.31 5.45L2.95 10.22L11.31 15.08Z" id="bFskRZzv7"></path><path d="M11.31 15.08L11.31 20.1L0 12.87L0 7.66L11.31 0.43L11.31 5.45L2.95 10.22L11.31 15.08Z" id="m5sIgllRqL"></path></defs><g><g><use xlink:href="#b8icfU4ux3" opacity="1" fill="#ffffff" fill-opacity="1"></use><g><use xlink:href="#b8icfU4ux3" opacity="1" fill-opacity="0" stroke="#ffffff" stroke-width="1" stroke-opacity="0"></use></g></g><g><use xlink:href="#iX3ssKcjg" opacity="1" fill="#ffffff" fill-opacity="1"></use><g><use xlink:href="#iX3ssKcjg" opacity="1" fill-opacity="0" stroke="#ffffff" stroke-width="1" stroke-opacity="0"></use></g></g><g><use xlink:href="#aHcbOyVNp" opacity="1" fill="#ffffff" fill-opacity="1"></use><g><use xlink:href="#aHcbOyVNp" opacity="1" fill-opacity="0" stroke="#ffffff" stroke-width="1" stroke-opacity="0"></use></g></g><g><use xlink:href="#aqd8Rxlvq" opacity="1" fill="#ffffff" fill-opacity="1"></use><g><use xlink:href="#aqd8Rxlvq" opacity="1" fill-opacity="0" stroke="#ffffff" stroke-width="1" stroke-opacity="0"></use></g></g><g><use xlink:href="#d1AO5rmmyV" opacity="1" fill="#ffffff" fill-opacity="1"></use><g><use xlink:href="#d1AO5rmmyV" opacity="1" fill-opacity="0" stroke="#ffffff" stroke-width="1" stroke-opacity="0"></use></g></g><g><use xlink:href="#eaS9ENDwL" opacity="1" fill="#ffffff" fill-opacity="1"></use><g><use xlink:href="#eaS9ENDwL" opacity="1" fill-opacity="0" stroke="#ffffff" stroke-width="1" stroke-opacity="0"></use></g></g><g><use xlink:href="#euJZZ0UBi" opacity="1" fill="#ffffff" fill-opacity="1"></use><g><use xlink:href="#euJZZ0UBi" opacity="1" fill-opacity="0" stroke="#ffffff" stroke-width="1" stroke-opacity="0"></use></g></g><g><use xlink:href="#b1cDDXLlP2" opacity="1" fill="#ffffff" fill-opacity="1"></use><g><use xlink:href="#b1cDDXLlP2" opacity="1" fill-opacity="0" stroke="#ffffff" stroke-width="1" stroke-opacity="0"></use></g></g><g><use xlink:href="#alh4qi1Jn" opacity="1" fill="#ffffff" fill-opacity="1"></use><g><use xlink:href="#alh4qi1Jn" opacity="1" fill-opacity="0" stroke="#ffffff" stroke-width="1" stroke-opacity="0"></use></g></g><g><use xlink:href="#fx51kKuAg" opacity="1" fill="#ffffff" fill-opacity="1"></use><g><use xlink:href="#fx51kKuAg" opacity="1" fill-opacity="0" stroke="#ffffff" stroke-width="1" stroke-opacity="0"></use></g></g><g><use xlink:href="#aQpz4kvK8" opacity="1" fill="#ffffff" fill-opacity="1"></use><g><use xlink:href="#aQpz4kvK8" opacity="1" fill-opacity="0" stroke="#ffffff" stroke-width="1" stroke-opacity="0"></use></g></g><g><use xlink:href="#b3ASDAq3E2" opacity="1" fill="#ffffff" fill-opacity="1"></use><g><use xlink:href="#b3ASDAq3E2" opacity="1" fill-opacity="0" stroke="#ffffff" stroke-width="1" stroke-opacity="0"></use></g></g><g><use xlink:href="#aaMBnv29Z" opacity="1" fill="#ffffff" fill-opacity="1"></use><g><use xlink:href="#aaMBnv29Z" opacity="1" fill-opacity="0" stroke="#ffffff" stroke-width="1" stroke-opacity="0"></use></g></g><g><use xlink:href="#b1Lc1MWAb5" opacity="1" fill="#ffffff" fill-opacity="1"></use><g><use xlink:href="#b1Lc1MWAb5" opacity="1" fill-opacity="0" stroke="#ffffff" stroke-width="1" stroke-opacity="0"></use></g></g><g><use xlink:href="#gCCRFK9I" opacity="1" fill="#ffffff" fill-opacity="1"></use><g><use xlink:href="#gCCRFK9I" opacity="1" fill-opacity="0" stroke="#ffffff" stroke-width="1" stroke-opacity="0"></use></g></g><g><use xlink:href="#baBexc693" opacity="1" fill="#ffffff" fill-opacity="1"></use><g><use xlink:href="#baBexc693" opacity="1" fill-opacity="0" stroke="#ffffff" stroke-width="1" stroke-opacity="0"></use></g></g><g><use xlink:href="#a1qEylHTBL" opacity="1" fill="#ffffff" fill-opacity="1"></use><g><use xlink:href="#a1qEylHTBL" opacity="1" fill-opacity="0" stroke="#ffffff" stroke-width="1" stroke-opacity="0"></use></g></g><g><use xlink:href="#bWizgBYTZ" opacity="1" fill="#ffffff" fill-opacity="1"></use><g><use xlink:href="#bWizgBYTZ" opacity="1" fill-opacity="0" stroke="#ffffff" stroke-width="1" stroke-opacity="0"></use></g></g><g><use xlink:href="#cqued6OkL" opacity="1" fill="#ffffff" fill-opacity="1"></use><g><use xlink:href="#cqued6OkL" opacity="1" fill-opacity="0" stroke="#ffffff" stroke-width="1" stroke-opacity="0"></use></g></g><g><use xlink:href="#ekP4ymTbU" opacity="1" fill="#ffffff" fill-opacity="1"></use><g><use xlink:href="#ekP4ymTbU" opacity="1" fill-opacity="0" stroke="#ffffff" stroke-width="1" stroke-opacity="0"></use></g></g><g><use xlink:href="#a28VCk9kCE" opacity="1" fill="#ffffff" fill-opacity="1"></use><g><use xlink:href="#a28VCk9kCE" opacity="1" fill-opacity="0" stroke="#ffffff" stroke-width="1" stroke-opacity="0"></use></g></g><g><use xlink:href="#bbbtdIzEzy" opacity="1" fill="#ffffff" fill-opacity="1"></use><g><use xlink:href="#bbbtdIzEzy" opacity="1" fill-opacity="0" stroke="#ffffff" stroke-width="1" stroke-opacity="0"></use></g></g><g><use xlink:href="#b2IEnxjKg" opacity="1" fill="#ffffff" fill-opacity="1"></use><g><use xlink:href="#b2IEnxjKg" opacity="1" fill-opacity="0" stroke="#ffffff" stroke-width="1" stroke-opacity="0"></use></g></g><g><use xlink:href="#a1a7rZZ3o1" opacity="1" fill="#ffffff" fill-opacity="1"></use><g><use xlink:href="#a1a7rZZ3o1" opacity="1" fill-opacity="0" stroke="#ffffff" stroke-width="1" stroke-opacity="0"></use></g></g><g><use xlink:href="#cbhl7So4K" opacity="1" fill="#ffffff" fill-opacity="1"></use><g><use xlink:href="#cbhl7So4K" opacity="1" fill-opacity="0" stroke="#ffffff" stroke-width="1" stroke-opacity="0"></use></g></g><g><use xlink:href="#bUUlF0DQ" opacity="1" fill="#ffffff" fill-opacity="1"></use><g><use xlink:href="#bUUlF0DQ" opacity="1" fill-opacity="0" stroke="#ffffff" stroke-width="1" stroke-opacity="0"></use></g></g><g><use xlink:href="#a91JAzLY4" opacity="1" fill="#ffffff" fill-opacity="1"></use><g><use xlink:href="#a91JAzLY4" opacity="1" fill-opacity="0" stroke="#ffffff" stroke-width="1" stroke-opacity="0"></use></g></g><g><use xlink:href="#b6gIeldwWq" opacity="1" fill="#ffffff" fill-opacity="1"></use><g><use xlink:href="#b6gIeldwWq" opacity="1" fill-opacity="0" stroke="#ffffff" stroke-width="1" stroke-opacity="0"></use></g></g><g><use xlink:href="#b3BEuKAjjw" opacity="1" fill="#ffffff" fill-opacity="1"></use><g><use xlink:href="#b3BEuKAjjw" opacity="1" fill-opacity="0" stroke="#ffffff" stroke-width="1" stroke-opacity="0"></use></g></g><g><use xlink:href="#adr8x13uW" opacity="1" fill="#ffffff" fill-opacity="1"></use><g><use xlink:href="#adr8x13uW" opacity="1" fill-opacity="0" stroke="#ffffff" stroke-width="1" stroke-opacity="0"></use></g></g><g><use xlink:href="#aEzk5LGah" opacity="1" fill="#ffffff" fill-opacity="1"></use><g><use xlink:href="#aEzk5LGah" opacity="1" fill-opacity="0" stroke="#ffffff" stroke-width="1" stroke-opacity="0"></use></g></g><g><use xlink:href="#amjZN9aTY" opacity="1" fill="#ffffff" fill-opacity="1"></use><g><use xlink:href="#amjZN9aTY" opacity="1" fill-opacity="0" stroke="#ffffff" stroke-width="1" stroke-opacity="0"></use></g></g><g><use xlink:href="#aC1D9Btdd" opacity="1" fill="#ffffff" fill-opacity="1"></use><g><use xlink:href="#aC1D9Btdd" opacity="1" fill-opacity="0" stroke="#ffffff" stroke-width="1" stroke-opacity="0"></use></g></g><g><use xlink:href="#aEJ0Q03nc" opacity="1" fill="#ffffff" fill-opacity="1"></use><g><use xlink:href="#aEJ0Q03nc" opacity="1" fill-opacity="0" stroke="#ffffff" stroke-width="1" stroke-opacity="0"></use></g></g><g><use xlink:href="#b1HSe2VnI2" opacity="1" fill="#ffffff" fill-opacity="1"></use><g><use xlink:href="#b1HSe2VnI2" opacity="1" fill-opacity="0" stroke="#ffffff" stroke-width="1" stroke-opacity="0"></use></g></g><g><use xlink:href="#d4K4YANxD" opacity="1" fill="#ffffff" fill-opacity="1"></use><g><use xlink:href="#d4K4YANxD" opacity="1" fill-opacity="0" stroke="#ffffff" stroke-width="1" stroke-opacity="0"></use></g></g><g><use xlink:href="#a12VNfNj5N" opacity="1" fill="#ffffff" fill-opacity="1"></use><g><use xlink:href="#a12VNfNj5N" opacity="1" fill-opacity="0" stroke="#ffffff" stroke-width="1" stroke-opacity="0"></use></g></g><g><use xlink:href="#b6y7Skb55r" opacity="1" fill="#ffffff" fill-opacity="1"></use><g><use xlink:href="#b6y7Skb55r" opacity="1" fill-opacity="0" stroke="#ffffff" stroke-width="1" stroke-opacity="0"></use></g></g><g><use xlink:href="#g2alkw1aJ8" opacity="1" fill="#ffffff" fill-opacity="1"></use><g><use xlink:href="#g2alkw1aJ8" opacity="1" fill-opacity="0" stroke="#ffffff" stroke-width="1" stroke-opacity="0"></use></g></g><g><use xlink:href="#bOgXdVccN" opacity="1" fill="#ffffff" fill-opacity="1"></use><g><use xlink:href="#bOgXdVccN" opacity="1" fill-opacity="0" stroke="#ffffff" stroke-width="1" stroke-opacity="0"></use></g></g><g><use xlink:href="#bJgMAmemT" opacity="1" fill="#ffffff" fill-opacity="1"></use><g><use xlink:href="#bJgMAmemT" opacity="1" fill-opacity="0" stroke="#ffffff" stroke-width="1" stroke-opacity="0"></use></g></g><g><use xlink:href="#abDPKyW6Y" opacity="1" fill="#ffffff" fill-opacity="1"></use><g><use xlink:href="#abDPKyW6Y" opacity="1" fill-opacity="0" stroke="#ffffff" stroke-width="1" stroke-opacity="0"></use></g></g><g><use xlink:href="#bFskRZzv7" opacity="1" fill="#ffffff" fill-opacity="1"></use><g><use xlink:href="#bFskRZzv7" opacity="1" fill-opacity="0" stroke="#ffffff" stroke-width="1" stroke-opacity="0"></use></g></g><g><use xlink:href="#m5sIgllRqL" opacity="1" fill="#ffffff" fill-opacity="1"></use><g><use xlink:href="#m5sIgllRqL" opacity="1" fill-opacity="0" stroke="#ffffff" stroke-width="1" stroke-opacity="0"></use></g></g></g></svg>