<?xml version="1.0" encoding="UTF-8" standalone="no"?>
<!DOCTYPE svg PUBLIC "-//W3C//DTD SVG 1.1//EN" "http://www.w3.org/Graphics/SVG/1.1/DTD/svg11.dtd">
<svg version="1.1" xmlns="http://www.w3.org/2000/svg" xmlns:xlink="http://www.w3.org/1999/xlink" preserveAspectRatio="xMidYMid meet" width="147.29" height="25.85"><defs><path d="M75.45 3.59L65.5 3.59L65.5 8.66L75.25 8.66L75.25 11.67L65.5 11.67L65.5 20.11L62.07 20.11L62.07 0.57L75.45 0.57L75.45 3.59Z" id="bFX1S0qlS"></path><path d="M75.45 3.59L65.5 3.59L65.5 8.66L75.25 8.66L75.25 11.67L65.5 11.67L65.5 20.11L62.07 20.11L62.07 0.57L75.45 0.57L75.45 3.59Z" id="k1Iu8zyLsP"></path><path d="M75.45 3.59L65.5 3.59L65.5 8.66L75.25 8.66L75.25 11.67L65.5 11.67L65.5 20.11L62.07 20.11L62.07 0.57L75.45 0.57L75.45 3.59Z" id="bHvG1EJ9Q"></path><path d="M75.45 3.59L65.5 3.59L65.5 8.66L75.25 8.66L75.25 11.67L65.5 11.67L65.5 20.11L62.07 20.11L62.07 0.57L75.45 0.57L75.45 3.59Z" id="g1v1qSh2GG"></path><path d="M80.78 13.69C80.98 16 82.97 17.72 85.29 17.58C86.76 17.58 88.2 17.02 89.29 16.04C89.43 16.24 90.56 17.85 90.7 18.05C89.13 19.45 87.06 20.19 84.97 20.11C80.86 20.12 77.53 16.82 77.52 12.71C77.5 8.68 80.7 5.38 84.73 5.26C88.98 5.26 91.7 8.51 91.7 12.97C91.7 13.02 91.7 13.26 91.7 13.69C85.14 13.69 81.5 13.69 80.78 13.69ZM84.73 7.78C82.59 7.73 80.83 9.4 80.74 11.53C80.74 11.53 87.91 11.53 88.71 11.53C88.7 9.44 86.99 7.76 84.9 7.77C84.84 7.77 84.79 7.77 84.73 7.78Z" id="bfln48V50"></path><path d="M80.78 13.69C80.98 16 82.97 17.72 85.29 17.58C86.76 17.58 88.2 17.02 89.29 16.04C89.43 16.24 90.56 17.85 90.7 18.05C89.13 19.45 87.06 20.19 84.97 20.11C80.86 20.12 77.53 16.82 77.52 12.71C77.5 8.68 80.7 5.38 84.73 5.26C88.98 5.26 91.7 8.51 91.7 12.97C91.7 13.02 91.7 13.26 91.7 13.69C85.14 13.69 81.5 13.69 80.78 13.69ZM84.73 7.78C82.59 7.73 80.83 9.4 80.74 11.53C80.74 11.53 87.91 11.53 88.71 11.53C88.7 9.44 86.99 7.76 84.9 7.77C84.84 7.77 84.79 7.77 84.73 7.78Z" id="bAyINnEQ7"></path><path d="M80.78 13.69C80.98 16 82.97 17.72 85.29 17.58C86.76 17.58 88.2 17.02 89.29 16.04C89.43 16.24 90.56 17.85 90.7 18.05C89.13 19.45 87.06 20.19 84.97 20.11C80.86 20.12 77.53 16.82 77.52 12.71C77.5 8.68 80.7 5.38 84.73 5.26C88.98 5.26 91.7 8.51 91.7 12.97C91.7 13.02 91.7 13.26 91.7 13.69C85.14 13.69 81.5 13.69 80.78 13.69ZM84.73 7.78C82.59 7.73 80.83 9.4 80.74 11.53C80.74 11.53 87.91 11.53 88.71 11.53C88.7 9.44 86.99 7.76 84.9 7.77C84.84 7.77 84.79 7.77 84.73 7.78Z" id="b1L8bO3yZ3"></path><path d="M80.78 13.69C80.98 16 82.97 17.72 85.29 17.58C86.76 17.58 88.2 17.02 89.29 16.04C89.43 16.24 90.56 17.85 90.7 18.05C89.13 19.45 87.06 20.19 84.97 20.11C80.86 20.12 77.53 16.82 77.52 12.71C77.5 8.68 80.7 5.38 84.73 5.26C88.98 5.26 91.7 8.51 91.7 12.97C91.7 13.02 91.7 13.26 91.7 13.69C85.14 13.69 81.5 13.69 80.78 13.69ZM84.73 7.78C82.59 7.73 80.83 9.4 80.74 11.53C80.74 11.53 87.91 11.53 88.71 11.53C88.7 9.44 86.99 7.76 84.9 7.77C84.84 7.77 84.79 7.77 84.73 7.78Z" id="a5xKNq31D5"></path><path d="M97.08 13.69C97.29 16 99.29 17.72 101.59 17.58C103.08 17.58 104.51 17.02 105.61 16.04C105.75 16.24 106.86 17.85 107.01 18.05C105.43 19.45 103.38 20.19 101.27 20.11C97.17 20.12 93.83 16.82 93.82 12.71C93.8 8.68 97.01 5.38 101.03 5.26C105.29 5.26 108 8.51 108 12.97C108 13.02 108 13.26 108 13.69C101.46 13.69 97.82 13.69 97.08 13.69ZM101.03 7.78C98.92 7.73 97.13 9.4 97.05 11.53C97.05 11.53 104.22 11.53 105.02 11.53C105.01 9.44 103.29 7.76 101.21 7.77C101.15 7.77 101.1 7.77 101.03 7.78Z" id="b6t5ADd60Q"></path><path d="M97.08 13.69C97.29 16 99.29 17.72 101.59 17.58C103.08 17.58 104.51 17.02 105.61 16.04C105.75 16.24 106.86 17.85 107.01 18.05C105.43 19.45 103.38 20.19 101.27 20.11C97.17 20.12 93.83 16.82 93.82 12.71C93.8 8.68 97.01 5.38 101.03 5.26C105.29 5.26 108 8.51 108 12.97C108 13.02 108 13.26 108 13.69C101.46 13.69 97.82 13.69 97.08 13.69ZM101.03 7.78C98.92 7.73 97.13 9.4 97.05 11.53C97.05 11.53 104.22 11.53 105.02 11.53C105.01 9.44 103.29 7.76 101.21 7.77C101.15 7.77 101.1 7.77 101.03 7.78Z" id="b4iGni6y"></path><path d="M97.08 13.69C97.29 16 99.29 17.72 101.59 17.58C103.08 17.58 104.51 17.02 105.61 16.04C105.75 16.24 106.86 17.85 107.01 18.05C105.43 19.45 103.38 20.19 101.27 20.11C97.17 20.12 93.83 16.82 93.82 12.71C93.8 8.68 97.01 5.38 101.03 5.26C105.29 5.26 108 8.51 108 12.97C108 13.02 108 13.26 108 13.69C101.46 13.69 97.82 13.69 97.08 13.69ZM101.03 7.78C98.92 7.73 97.13 9.4 97.05 11.53C97.05 11.53 104.22 11.53 105.02 11.53C105.01 9.44 103.29 7.76 101.21 7.77C101.15 7.77 101.1 7.77 101.03 7.78Z" id="dvROidaf"></path><path d="M97.08 13.69C97.29 16 99.29 17.72 101.59 17.58C103.08 17.58 104.51 17.02 105.61 16.04C105.75 16.24 106.86 17.85 107.01 18.05C105.43 19.45 103.38 20.19 101.27 20.11C97.17 20.12 93.83 16.82 93.82 12.71C93.8 8.68 97.01 5.38 101.03 5.26C105.29 5.26 108 8.51 108 12.97C108 13.02 108 13.26 108 13.69C101.46 13.69 97.82 13.69 97.08 13.69ZM101.03 7.78C98.92 7.73 97.13 9.4 97.05 11.53C97.05 11.53 104.22 11.53 105.02 11.53C105.01 9.44 103.29 7.76 101.21 7.77C101.15 7.77 101.1 7.77 101.03 7.78Z" id="b1kITFaH2K"></path><path d="M114.12 20.11L111.05 20.11L111.05 0.57L114.12 0.57L114.12 20.11Z" id="bo5uqz60C"></path><path d="M114.12 20.11L111.05 20.11L111.05 0.57L114.12 0.57L114.12 20.11Z" id="a44jLC4hj"></path><path d="M114.12 20.11L111.05 20.11L111.05 0.57L114.12 0.57L114.12 20.11Z" id="aJLFz0yGM"></path><path d="M114.12 20.11L111.05 20.11L111.05 0.57L114.12 0.57L114.12 20.11Z" id="hjJLoKphC"></path><path d="M119.62 3.79C119.62 3.79 119.62 3.79 119.62 3.79C118.58 3.78 117.74 2.95 117.73 1.89C117.73 0.84 118.58 0 119.62 0C120.68 0 121.53 0.84 121.53 1.89C121.53 2.95 120.68 3.79 119.62 3.79ZM121.19 20.11L118.12 20.11L118.11 5.97L121.19 5.97L121.19 20.11Z" id="b2gUPdxxXB"></path><path d="M119.62 3.79C119.62 3.79 119.62 3.79 119.62 3.79C118.58 3.78 117.74 2.95 117.73 1.89C117.73 0.84 118.58 0 119.62 0C120.68 0 121.53 0.84 121.53 1.89C121.53 2.95 120.68 3.79 119.62 3.79ZM121.19 20.11L118.12 20.11L118.11 5.97L121.19 5.97L121.19 20.11Z" id="d1ndyLrgWJ"></path><path d="M119.62 3.79C119.62 3.79 119.62 3.79 119.62 3.79C118.58 3.78 117.74 2.95 117.73 1.89C117.73 0.84 118.58 0 119.62 0C120.68 0 121.53 0.84 121.53 1.89C121.53 2.95 120.68 3.79 119.62 3.79ZM121.19 20.11L118.12 20.11L118.11 5.97L121.19 5.97L121.19 20.11Z" id="cjcnWSjhM"></path><path d="M119.62 3.79C119.62 3.79 119.62 3.79 119.62 3.79C118.58 3.78 117.74 2.95 117.73 1.89C117.73 0.84 118.58 0 119.62 0C120.68 0 121.53 0.84 121.53 1.89C121.53 2.95 120.68 3.79 119.62 3.79ZM121.19 20.11L118.12 20.11L118.11 5.97L121.19 5.97L121.19 20.11Z" id="i2YJHa81Fh"></path><path d="M123.44 5.61L125.79 5.61L125.79 1.75L128.86 1.75L128.86 5.61L131.73 5.61C131.73 7.23 131.73 8.12 131.73 8.3C130 8.3 129.05 8.3 128.86 8.3C128.86 12.75 128.86 15.22 128.86 15.72C128.86 16.68 129.33 17.38 130.2 17.38C130.71 17.4 131.21 17.21 131.58 16.88C131.65 17.11 132.24 18.96 132.32 19.2C131.5 19.86 130.46 20.2 129.42 20.1C127.63 20.31 126 19.04 125.78 17.25C125.75 16.99 125.75 16.74 125.78 16.47C125.78 16.47 125.78 13.75 125.78 8.3C125.47 8.3 124.68 8.3 123.44 8.3C123.44 7.94 123.44 7.05 123.44 5.61Z" id="akFpTdLFA"></path><path d="M123.44 5.61L125.79 5.61L125.79 1.75L128.86 1.75L128.86 5.61L131.73 5.61C131.73 7.23 131.73 8.12 131.73 8.3C130 8.3 129.05 8.3 128.86 8.3C128.86 12.75 128.86 15.22 128.86 15.72C128.86 16.68 129.33 17.38 130.2 17.38C130.71 17.4 131.21 17.21 131.58 16.88C131.65 17.11 132.24 18.96 132.32 19.2C131.5 19.86 130.46 20.2 129.42 20.1C127.63 20.31 126 19.04 125.78 17.25C125.75 16.99 125.75 16.74 125.78 16.47C125.78 16.47 125.78 13.75 125.78 8.3C125.47 8.3 124.68 8.3 123.44 8.3C123.44 7.94 123.44 7.05 123.44 5.61Z" id="a2vCMms5yV"></path><path d="M123.44 5.61L125.79 5.61L125.79 1.75L128.86 1.75L128.86 5.61L131.73 5.61C131.73 7.23 131.73 8.12 131.73 8.3C130 8.3 129.05 8.3 128.86 8.3C128.86 12.75 128.86 15.22 128.86 15.72C128.86 16.68 129.33 17.38 130.2 17.38C130.71 17.4 131.21 17.21 131.58 16.88C131.65 17.11 132.24 18.96 132.32 19.2C131.5 19.86 130.46 20.2 129.42 20.1C127.63 20.31 126 19.04 125.78 17.25C125.75 16.99 125.75 16.74 125.78 16.47C125.78 16.47 125.78 13.75 125.78 8.3C125.47 8.3 124.68 8.3 123.44 8.3C123.44 7.94 123.44 7.05 123.44 5.61Z" id="d2WRcPvm7a"></path><path d="M123.44 5.61L125.79 5.61L125.79 1.75L128.86 1.75L128.86 5.61L131.73 5.61C131.73 7.23 131.73 8.12 131.73 8.3C130 8.3 129.05 8.3 128.86 8.3C128.86 12.75 128.86 15.22 128.86 15.72C128.86 16.68 129.33 17.38 130.2 17.38C130.71 17.4 131.21 17.21 131.58 16.88C131.65 17.11 132.24 18.96 132.32 19.2C131.5 19.86 130.46 20.2 129.42 20.1C127.63 20.31 126 19.04 125.78 17.25C125.75 16.99 125.75 16.74 125.78 16.47C125.78 16.47 125.78 13.75 125.78 8.3C125.47 8.3 124.68 8.3 123.44 8.3C123.44 7.94 123.44 7.05 123.44 5.61Z" id="adV88wixD"></path><path d="M132.45 5.97C132.67 5.97 133.76 5.97 135.73 5.97L139.86 16.57C142.33 10.21 143.71 6.67 143.99 5.97C145.98 5.97 147.08 5.97 147.29 5.97C143.2 15.98 140.93 21.53 140.47 22.65C139.76 24.7 137.77 26.01 135.62 25.84C135.03 25.84 134.45 25.77 133.88 25.64C133.88 25.36 133.88 23.17 133.88 22.89C134.42 23.05 134.97 23.12 135.53 23.12C136.4 23.22 137.24 22.72 137.56 21.89C137.6 21.78 137.84 21.24 138.25 20.28C137.87 19.32 135.93 14.55 132.45 5.97Z" id="ddxKZ5AVu"></path><path d="M132.45 5.97C132.67 5.97 133.76 5.97 135.73 5.97L139.86 16.57C142.33 10.21 143.71 6.67 143.99 5.97C145.98 5.97 147.08 5.97 147.29 5.97C143.2 15.98 140.93 21.53 140.47 22.65C139.76 24.7 137.77 26.01 135.62 25.84C135.03 25.84 134.45 25.77 133.88 25.64C133.88 25.36 133.88 23.17 133.88 22.89C134.42 23.05 134.97 23.12 135.53 23.12C136.4 23.22 137.24 22.72 137.56 21.89C137.6 21.78 137.84 21.24 138.25 20.28C137.87 19.32 135.93 14.55 132.45 5.97Z" id="c15nFtH3j2"></path><path d="M132.45 5.97C132.67 5.97 133.76 5.97 135.73 5.97L139.86 16.57C142.33 10.21 143.71 6.67 143.99 5.97C145.98 5.97 147.08 5.97 147.29 5.97C143.2 15.98 140.93 21.53 140.47 22.65C139.76 24.7 137.77 26.01 135.62 25.84C135.03 25.84 134.45 25.77 133.88 25.64C133.88 25.36 133.88 23.17 133.88 22.89C134.42 23.05 134.97 23.12 135.53 23.12C136.4 23.22 137.24 22.72 137.56 21.89C137.6 21.78 137.84 21.24 138.25 20.28C137.87 19.32 135.93 14.55 132.45 5.97Z" id="a4pSJp1bAd"></path><path d="M132.45 5.97C132.67 5.97 133.76 5.97 135.73 5.97L139.86 16.57C142.33 10.21 143.71 6.67 143.99 5.97C145.98 5.97 147.08 5.97 147.29 5.97C143.2 15.98 140.93 21.53 140.47 22.65C139.76 24.7 137.77 26.01 135.62 25.84C135.03 25.84 134.45 25.77 133.88 25.64C133.88 25.36 133.88 23.17 133.88 22.89C134.42 23.05 134.97 23.12 135.53 23.12C136.4 23.22 137.24 22.72 137.56 21.89C137.6 21.78 137.84 21.24 138.25 20.28C137.87 19.32 135.93 14.55 132.45 5.97Z" id="e1q0eTNF3G"></path><path d="M13.22 5.45L13.22 0.43L24.53 7.66L24.53 12.88L13.22 20.11L13.22 15.08L21.58 10.3L13.22 5.45Z" id="jejjF0v68"></path><path d="M13.22 5.45L13.22 0.43L24.53 7.66L24.53 12.88L13.22 20.11L13.22 15.08L21.58 10.3L13.22 5.45Z" id="a18hFlzxGC"></path><path d="M13.22 5.45L13.22 0.43L24.53 7.66L24.53 12.88L13.22 20.11L13.22 15.08L21.58 10.3L13.22 5.45Z" id="f3jDGsQEB2"></path><path d="M13.22 5.45L13.22 0.43L24.53 7.66L24.53 12.88L13.22 20.11L13.22 15.08L21.58 10.3L13.22 5.45Z" id="dl3ynw1V7"></path><path d="M37.74 15.08L37.74 20.1L26.43 12.87L26.43 7.66L37.74 0.43L37.74 5.45L29.38 10.22L37.74 15.08Z" id="b5PK1h1r"></path><path d="M37.74 15.08L37.74 20.1L26.43 12.87L26.43 7.66L37.74 0.43L37.74 5.45L29.38 10.22L37.74 15.08Z" id="b4IBn9xWFR"></path><path d="M37.74 15.08L37.74 20.1L26.43 12.87L26.43 7.66L37.74 0.43L37.74 5.45L29.38 10.22L37.74 15.08Z" id="a8v95xQ5AZ"></path><path d="M37.74 15.08L37.74 20.1L26.43 12.87L26.43 7.66L37.74 0.43L37.74 5.45L29.38 10.22L37.74 15.08Z" id="cy9af46T9"></path><path d="M39.65 5.45L39.65 0.43L50.95 7.66L50.95 12.88L39.65 20.11L39.65 15.08L48 10.3L39.65 5.45Z" id="f44Utwr763"></path><path d="M39.65 5.45L39.65 0.43L50.95 7.66L50.95 12.88L39.65 20.11L39.65 15.08L48 10.3L39.65 5.45Z" id="afDSU2kJE"></path><path d="M39.65 5.45L39.65 0.43L50.95 7.66L50.95 12.88L39.65 20.11L39.65 15.08L48 10.3L39.65 5.45Z" id="a3rM4PgrfO"></path><path d="M39.65 5.45L39.65 0.43L50.95 7.66L50.95 12.88L39.65 20.11L39.65 15.08L48 10.3L39.65 5.45Z" id="aSIKQjgFn"></path><path d="M11.31 15.08L11.31 20.1L0 12.87L0 7.66L11.31 0.43L11.31 5.45L2.95 10.22L11.31 15.08Z" id="c7UmCiQ16"></path><path d="M11.31 15.08L11.31 20.1L0 12.87L0 7.66L11.31 0.43L11.31 5.45L2.95 10.22L11.31 15.08Z" id="a66GdgvpPv"></path><path d="M11.31 15.08L11.31 20.1L0 12.87L0 7.66L11.31 0.43L11.31 5.45L2.95 10.22L11.31 15.08Z" id="ai6hCDsjL"></path><path d="M11.31 15.08L11.31 20.1L0 12.87L0 7.66L11.31 0.43L11.31 5.45L2.95 10.22L11.31 15.08Z" id="f20BIkLleg"></path></defs><g><g><use xlink:href="#bFX1S0qlS" opacity="1" fill="#000000" fill-opacity="0"></use><g><use xlink:href="#bFX1S0qlS" opacity="1" fill-opacity="0" stroke="#ffffff" stroke-width="1" stroke-opacity="1"></use></g></g><g><use xlink:href="#k1Iu8zyLsP" opacity="1" fill="#000000" fill-opacity="0"></use><g><use xlink:href="#k1Iu8zyLsP" opacity="1" fill-opacity="0" stroke="#ffffff" stroke-width="1" stroke-opacity="1"></use></g></g><g><use xlink:href="#bHvG1EJ9Q" opacity="1" fill="#000000" fill-opacity="0"></use><g><use xlink:href="#bHvG1EJ9Q" opacity="1" fill-opacity="0" stroke="#ffffff" stroke-width="1" stroke-opacity="1"></use></g></g><g><use xlink:href="#g1v1qSh2GG" opacity="1" fill="#000000" fill-opacity="0"></use><g><use xlink:href="#g1v1qSh2GG" opacity="1" fill-opacity="0" stroke="#ffffff" stroke-width="1" stroke-opacity="1"></use></g></g><g><use xlink:href="#bfln48V50" opacity="1" fill="#000000" fill-opacity="0"></use><g><use xlink:href="#bfln48V50" opacity="1" fill-opacity="0" stroke="#ffffff" stroke-width="1" stroke-opacity="1"></use></g></g><g><use xlink:href="#bAyINnEQ7" opacity="1" fill="#000000" fill-opacity="0"></use><g><use xlink:href="#bAyINnEQ7" opacity="1" fill-opacity="0" stroke="#ffffff" stroke-width="1" stroke-opacity="1"></use></g></g><g><use xlink:href="#b1L8bO3yZ3" opacity="1" fill="#000000" fill-opacity="0"></use><g><use xlink:href="#b1L8bO3yZ3" opacity="1" fill-opacity="0" stroke="#ffffff" stroke-width="1" stroke-opacity="1"></use></g></g><g><use xlink:href="#a5xKNq31D5" opacity="1" fill="#000000" fill-opacity="0"></use><g><use xlink:href="#a5xKNq31D5" opacity="1" fill-opacity="0" stroke="#ffffff" stroke-width="1" stroke-opacity="1"></use></g></g><g><use xlink:href="#b6t5ADd60Q" opacity="1" fill="#000000" fill-opacity="0"></use><g><use xlink:href="#b6t5ADd60Q" opacity="1" fill-opacity="0" stroke="#ffffff" stroke-width="1" stroke-opacity="1"></use></g></g><g><use xlink:href="#b4iGni6y" opacity="1" fill="#000000" fill-opacity="0"></use><g><use xlink:href="#b4iGni6y" opacity="1" fill-opacity="0" stroke="#ffffff" stroke-width="1" stroke-opacity="1"></use></g></g><g><use xlink:href="#dvROidaf" opacity="1" fill="#000000" fill-opacity="0"></use><g><use xlink:href="#dvROidaf" opacity="1" fill-opacity="0" stroke="#ffffff" stroke-width="1" stroke-opacity="1"></use></g></g><g><use xlink:href="#b1kITFaH2K" opacity="1" fill="#000000" fill-opacity="0"></use><g><use xlink:href="#b1kITFaH2K" opacity="1" fill-opacity="0" stroke="#ffffff" stroke-width="1" stroke-opacity="1"></use></g></g><g><use xlink:href="#bo5uqz60C" opacity="1" fill="#000000" fill-opacity="0"></use><g><use xlink:href="#bo5uqz60C" opacity="1" fill-opacity="0" stroke="#ffffff" stroke-width="1" stroke-opacity="1"></use></g></g><g><use xlink:href="#a44jLC4hj" opacity="1" fill="#000000" fill-opacity="0"></use><g><use xlink:href="#a44jLC4hj" opacity="1" fill-opacity="0" stroke="#ffffff" stroke-width="1" stroke-opacity="1"></use></g></g><g><use xlink:href="#aJLFz0yGM" opacity="1" fill="#000000" fill-opacity="0"></use><g><use xlink:href="#aJLFz0yGM" opacity="1" fill-opacity="0" stroke="#ffffff" stroke-width="1" stroke-opacity="1"></use></g></g><g><use xlink:href="#hjJLoKphC" opacity="1" fill="#000000" fill-opacity="0"></use><g><use xlink:href="#hjJLoKphC" opacity="1" fill-opacity="0" stroke="#ffffff" stroke-width="1" stroke-opacity="1"></use></g></g><g><use xlink:href="#b2gUPdxxXB" opacity="1" fill="#000000" fill-opacity="0"></use><g><use xlink:href="#b2gUPdxxXB" opacity="1" fill-opacity="0" stroke="#ffffff" stroke-width="1" stroke-opacity="1"></use></g></g><g><use xlink:href="#d1ndyLrgWJ" opacity="1" fill="#000000" fill-opacity="0"></use><g><use xlink:href="#d1ndyLrgWJ" opacity="1" fill-opacity="0" stroke="#ffffff" stroke-width="1" stroke-opacity="1"></use></g></g><g><use xlink:href="#cjcnWSjhM" opacity="1" fill="#000000" fill-opacity="0"></use><g><use xlink:href="#cjcnWSjhM" opacity="1" fill-opacity="0" stroke="#ffffff" stroke-width="1" stroke-opacity="1"></use></g></g><g><use xlink:href="#i2YJHa81Fh" opacity="1" fill="#000000" fill-opacity="0"></use><g><use xlink:href="#i2YJHa81Fh" opacity="1" fill-opacity="0" stroke="#ffffff" stroke-width="1" stroke-opacity="1"></use></g></g><g><use xlink:href="#akFpTdLFA" opacity="1" fill="#000000" fill-opacity="0"></use><g><use xlink:href="#akFpTdLFA" opacity="1" fill-opacity="0" stroke="#ffffff" stroke-width="1" stroke-opacity="1"></use></g></g><g><use xlink:href="#a2vCMms5yV" opacity="1" fill="#000000" fill-opacity="0"></use><g><use xlink:href="#a2vCMms5yV" opacity="1" fill-opacity="0" stroke="#ffffff" stroke-width="1" stroke-opacity="1"></use></g></g><g><use xlink:href="#d2WRcPvm7a" opacity="1" fill="#000000" fill-opacity="0"></use><g><use xlink:href="#d2WRcPvm7a" opacity="1" fill-opacity="0" stroke="#ffffff" stroke-width="1" stroke-opacity="1"></use></g></g><g><use xlink:href="#adV88wixD" opacity="1" fill="#000000" fill-opacity="0"></use><g><use xlink:href="#adV88wixD" opacity="1" fill-opacity="0" stroke="#ffffff" stroke-width="1" stroke-opacity="1"></use></g></g><g><use xlink:href="#ddxKZ5AVu" opacity="1" fill="#000000" fill-opacity="0"></use><g><use xlink:href="#ddxKZ5AVu" opacity="1" fill-opacity="0" stroke="#ffffff" stroke-width="1" stroke-opacity="1"></use></g></g><g><use xlink:href="#c15nFtH3j2" opacity="1" fill="#000000" fill-opacity="0"></use><g><use xlink:href="#c15nFtH3j2" opacity="1" fill-opacity="0" stroke="#ffffff" stroke-width="1" stroke-opacity="1"></use></g></g><g><use xlink:href="#a4pSJp1bAd" opacity="1" fill="#000000" fill-opacity="0"></use><g><use xlink:href="#a4pSJp1bAd" opacity="1" fill-opacity="0" stroke="#ffffff" stroke-width="1" stroke-opacity="1"></use></g></g><g><use xlink:href="#e1q0eTNF3G" opacity="1" fill="#000000" fill-opacity="0"></use><g><use xlink:href="#e1q0eTNF3G" opacity="1" fill-opacity="0" stroke="#ffffff" stroke-width="1" stroke-opacity="1"></use></g></g><g><use xlink:href="#jejjF0v68" opacity="1" fill="#000000" fill-opacity="0"></use><g><use xlink:href="#jejjF0v68" opacity="1" fill-opacity="0" stroke="#ffffff" stroke-width="1" stroke-opacity="1"></use></g></g><g><use xlink:href="#a18hFlzxGC" opacity="1" fill="#000000" fill-opacity="0"></use><g><use xlink:href="#a18hFlzxGC" opacity="1" fill-opacity="0" stroke="#ffffff" stroke-width="1" stroke-opacity="1"></use></g></g><g><use xlink:href="#f3jDGsQEB2" opacity="1" fill="#000000" fill-opacity="0"></use><g><use xlink:href="#f3jDGsQEB2" opacity="1" fill-opacity="0" stroke="#ffffff" stroke-width="1" stroke-opacity="1"></use></g></g><g><use xlink:href="#dl3ynw1V7" opacity="1" fill="#000000" fill-opacity="0"></use><g><use xlink:href="#dl3ynw1V7" opacity="1" fill-opacity="0" stroke="#ffffff" stroke-width="1" stroke-opacity="1"></use></g></g><g><use xlink:href="#b5PK1h1r" opacity="1" fill="#000000" fill-opacity="0"></use><g><use xlink:href="#b5PK1h1r" opacity="1" fill-opacity="0" stroke="#ffffff" stroke-width="1" stroke-opacity="1"></use></g></g><g><use xlink:href="#b4IBn9xWFR" opacity="1" fill="#000000" fill-opacity="0"></use><g><use xlink:href="#b4IBn9xWFR" opacity="1" fill-opacity="0" stroke="#ffffff" stroke-width="1" stroke-opacity="1"></use></g></g><g><use xlink:href="#a8v95xQ5AZ" opacity="1" fill="#000000" fill-opacity="0"></use><g><use xlink:href="#a8v95xQ5AZ" opacity="1" fill-opacity="0" stroke="#ffffff" stroke-width="1" stroke-opacity="1"></use></g></g><g><use xlink:href="#cy9af46T9" opacity="1" fill="#000000" fill-opacity="0"></use><g><use xlink:href="#cy9af46T9" opacity="1" fill-opacity="0" stroke="#ffffff" stroke-width="1" stroke-opacity="1"></use></g></g><g><use xlink:href="#f44Utwr763" opacity="1" fill="#000000" fill-opacity="0"></use><g><use xlink:href="#f44Utwr763" opacity="1" fill-opacity="0" stroke="#ffffff" stroke-width="1" stroke-opacity="1"></use></g></g><g><use xlink:href="#afDSU2kJE" opacity="1" fill="#000000" fill-opacity="0"></use><g><use xlink:href="#afDSU2kJE" opacity="1" fill-opacity="0" stroke="#ffffff" stroke-width="1" stroke-opacity="1"></use></g></g><g><use xlink:href="#a3rM4PgrfO" opacity="1" fill="#000000" fill-opacity="0"></use><g><use xlink:href="#a3rM4PgrfO" opacity="1" fill-opacity="0" stroke="#ffffff" stroke-width="1" stroke-opacity="1"></use></g></g><g><use xlink:href="#aSIKQjgFn" opacity="1" fill="#000000" fill-opacity="0"></use><g><use xlink:href="#aSIKQjgFn" opacity="1" fill-opacity="0" stroke="#ffffff" stroke-width="1" stroke-opacity="1"></use></g></g><g><use xlink:href="#c7UmCiQ16" opacity="1" fill="#000000" fill-opacity="0"></use><g><use xlink:href="#c7UmCiQ16" opacity="1" fill-opacity="0" stroke="#ffffff" stroke-width="1" stroke-opacity="1"></use></g></g><g><use xlink:href="#a66GdgvpPv" opacity="1" fill="#000000" fill-opacity="0"></use><g><use xlink:href="#a66GdgvpPv" opacity="1" fill-opacity="0" stroke="#ffffff" stroke-width="1" stroke-opacity="1"></use></g></g><g><use xlink:href="#ai6hCDsjL" opacity="1" fill="#000000" fill-opacity="0"></use><g><use xlink:href="#ai6hCDsjL" opacity="1" fill-opacity="0" stroke="#ffffff" stroke-width="1" stroke-opacity="1"></use></g></g><g><use xlink:href="#f20BIkLleg" opacity="1" fill="#000000" fill-opacity="0"></use><g><use xlink:href="#f20BIkLleg" opacity="1" fill-opacity="0" stroke="#ffffff" stroke-width="1" stroke-opacity="1"></use></g></g></g></svg>