<svg id="Calque_1" data-name="Calque 1" xmlns="http://www.w3.org/2000/svg" viewBox="0 0 169 8"><title>slider</title><path d="M143,183v8H312v-8Zm2,7h-1v-6h1Zm2,0h-1v-6h1Zm2,0h-1v-6h1Zm2,0h-1v-6h1Zm2,0h-1v-6h1Zm2,0h-1v-6h1Zm2,0h-1v-6h1Zm2,0h-1v-6h1Zm2,0h-1v-6h1Zm2,0h-1v-6h1Zm2,0h-1v-6h1Zm2,0h-1v-6h1Zm2,0h-1v-6h1Zm2,0h-1v-6h1Zm2,0h-1v-6h1Zm2,0h-1v-6h1Zm2,0h-1v-6h1Zm2,0h-1v-6h1Zm2,0h-1v-6h1Zm2,0h-1v-6h1Zm2,0h-1v-6h1Zm2,0h-1v-6h1Zm2,0h-1v-6h1Zm2,0h-1v-6h1Zm2,0h-1v-6h1Zm2,0h-1v-6h1Zm2,0h-1v-6h1Zm2,0h-1v-6h1Zm2,0h-1v-6h1Zm2,0h-1v-6h1Zm2,0h-1v-6h1Zm2,0h-1v-6h1Zm2,0h-1v-6h1Zm2,0h-1v-6h1Zm2,0h-1v-6h1Zm2,0h-1v-6h1Zm2,0h-1v-6h1Zm2,0h-1v-6h1Zm2,0h-1v-6h1Zm2,0h-1v-6h1Zm2,0h-1v-6h1Zm2,0h-1v-6h1Zm2,0h-1v-6h1Zm2,0h-1v-6h1Zm2,0h-1v-6h1Zm2,0h-1v-6h1Zm2,0h-1v-6h1Zm2,0h-1v-6h1Zm2,0h-1v-6h1Zm2,0h-1v-6h1Zm2,0h-1v-6h1Zm2,0h-1v-6h1Zm2,0h-1v-6h1Zm2,0h-1v-6h1Zm2,0h-1v-6h1Zm2,0h-1v-6h1Zm2,0h-1v-6h1Zm2,0h-1v-6h1Zm2,0h-1v-6h1Zm2,0h-1v-6h1Zm2,0h-1v-6h1Zm2,0h-1v-6h1Zm2,0h-1v-6h1Zm2,0h-1v-6h1Zm2,0h-1v-6h1Zm2,0h-1v-6h1Zm2,0h-1v-6h1Zm2,0h-1v-6h1Zm2,0h-1v-6h1Zm2,0h-1v-6h1Zm2,0h-1v-6h1Zm2,0h-1v-6h1Zm2,0h-1v-6h1Zm2,0h-1v-6h1Zm2,0h-1v-6h1Zm2,0h-1v-6h1Zm2,0h-1v-6h1Zm2,0h-1v-6h1Zm2,0h-1v-6h1Zm2,0h-1v-6h1Zm2,0h-1v-6h1Zm2,0h-1v-6h1Zm2,0h-1v-6h1Zm2,0h-1v-6h1Z" transform="translate(-143 -183)"/></svg>