<?xml version="1.0" encoding="utf-8"?>
<!-- Generator: Adobe Illustrator 21.1.0, SVG Export Plug-In . SVG Version: 6.00 Build 0)  -->
<svg version="1.1" id="Calque_1" xmlns="http://www.w3.org/2000/svg" xmlns:xlink="http://www.w3.org/1999/xlink" x="0px" y="0px"
	 viewBox="0 0 164 150.8" style="enable-background:new 0 0 164 150.8;" xml:space="preserve">
<path d="M105.4,104.2c4.2,4,7.7,7.1,11.5,11c22.1-27.9,20.4-53.2-3.5-78.2c-3.3,3.6-6.8,7.2-10.1,10.8
	C122.3,67.6,120.7,86.4,105.4,104.2L105.4,104.2z M125,25c3.5-3.6,7-7.2,10.5-10.9c37.6,38.9,36.4,84.2,3.5,122.4
	c-3.4-3.3-6.8-6.7-10.2-10C156,95.8,155.6,55,125,25L125,25z M91.8,6.8L35.1,39.5H0v71.7h35.1L91.8,144L91.8,6.8L91.8,6.8z"/>
</svg>
