<?xml version="1.0" encoding="utf-8"?>
<!-- Generator: Adobe Illustrator 21.1.0, SVG Export Plug-In . SVG Version: 6.00 Build 0)  -->
<svg version="1.1" id="Calque_1" xmlns="http://www.w3.org/2000/svg" xmlns:xlink="http://www.w3.org/1999/xlink" x="0px" y="0px"
	 viewBox="0 0 60.7 60.7" style="enable-background:new 0 0 60.7 60.7;" xml:space="preserve">
<style type="text/css">
	.st0{fill:none;stroke:#666666;stroke-miterlimit:10;}
</style>
<rect x="2.9" y="3.6" class="st0" width="54.5" height="54.5"/>
<line class="st0" x1="19.8" y1="55.6" x2="5.4" y2="41.2"/>
<line class="st0" x1="54.5" y1="41.2" x2="40.1" y2="55.6"/>
<line class="st0" x1="40.1" y1="6.5" x2="54.5" y2="20.9"/>
<line class="st0" x1="43.9" y1="6.5" x2="54.5" y2="17"/>
<line class="st0" x1="5.4" y1="17.1" x2="15.9" y2="6.6"/>
<line class="st0" x1="44.4" y1="55.6" x2="54.6" y2="45.3"/>
<line class="st0" x1="5.5" y1="45" x2="16" y2="55.5"/>
<line class="st0" x1="5.3" y1="21" x2="19.8" y2="6.5"/>
<line class="st0" x1="54.5" y1="55.6" x2="49.7" y2="50.8"/>
<line class="st0" x1="10.7" y1="11.8" x2="5.9" y2="7"/>
<line class="st0" x1="49.5" y1="11.5" x2="54.2" y2="6.7"/>
<line class="st0" x1="6" y1="55" x2="10.7" y2="50.3"/>
<polyline class="st0" points="50.8,6.5 49.2,8.1 47.6,6.5 "/>
<polyline class="st0" points="54.5,13.4 52.9,11.8 54.5,10.2 "/>
<polyline class="st0" points="9.1,55.6 10.7,54 12.3,55.6 "/>
<polyline class="st0" points="5.5,48.7 7.1,50.3 5.5,51.9 "/>
<polyline class="st0" points="54.5,51.8 52.9,50.2 54.5,48.5 "/>
<polyline class="st0" points="47.7,55.6 49.3,54 50.9,55.6 "/>
<polyline class="st0" points="5.5,10.1 7.1,11.7 5.5,13.3 "/>
<polyline class="st0" points="12.5,6.5 10.9,8.2 9.3,6.5 "/>
</svg>
