<?xml version="1.0" encoding="utf-8"?>
<!-- Generator: Adobe Illustrator 21.1.0, SVG Export Plug-In . SVG Version: 6.00 Build 0)  -->
<svg version="1.1" id="Calque_1" xmlns="http://www.w3.org/2000/svg" xmlns:xlink="http://www.w3.org/1999/xlink" x="0px" y="0px"
	 viewBox="0 0 222 60" style="enable-background:new 0 0 222 60;" xml:space="preserve">
<style type="text/css">
	.st0{fill:none;stroke:#666666;stroke-miterlimit:10;}
</style>
<rect x="83.6" y="-77.4" transform="matrix(6.123234e-17 -1 1 6.123234e-17 81.0586 140.6836)" class="st0" width="54.5" height="214.5"/>
<rect x="86.3" y="-74.7" transform="matrix(6.123234e-17 -1 1 6.123234e-17 81.0586 140.6836)" class="st0" width="49.1" height="209.1"/>
<line class="st0" x1="215.4" y1="40" x2="201" y2="54.3"/>
<line class="st0" x1="201" y1="5.3" x2="215.4" y2="19.7"/>
<line class="st0" x1="6.3" y1="19.7" x2="20.7" y2="5.3"/>
<line class="st0" x1="6.3" y1="15.8" x2="16.9" y2="5.3"/>
<line class="st0" x1="16.9" y1="54.4" x2="6.4" y2="43.9"/>
<line class="st0" x1="215.4" y1="15.4" x2="205.1" y2="5.1"/>
<line class="st0" x1="204.8" y1="54.3" x2="215.3" y2="43.8"/>
<line class="st0" x1="20.8" y1="54.4" x2="6.3" y2="40"/>
<line class="st0" x1="215.4" y1="5.3" x2="210.6" y2="10.1"/>
<line class="st0" x1="11.6" y1="49.1" x2="6.8" y2="53.9"/>
<line class="st0" x1="11.3" y1="10.3" x2="6.6" y2="5.5"/>
<line class="st0" x1="214.8" y1="53.8" x2="210.1" y2="49"/>
<polyline class="st0" points="6.3,8.9 7.9,10.5 6.3,12.1 "/>
<polyline class="st0" points="13.2,5.3 11.6,6.9 10,5.3 "/>
<polyline class="st0" points="215.4,50.6 213.8,49 215.4,47.4 "/>
<polyline class="st0" points="208.5,54.3 210.1,52.7 211.7,54.3 "/>
<polyline class="st0" points="211.6,5.2 210,6.8 208.4,5.2 "/>
<polyline class="st0" points="215.4,12 213.8,10.4 215.4,8.8 "/>
<polyline class="st0" points="9.9,54.3 11.5,52.7 13.1,54.3 "/>
<polyline class="st0" points="6.4,47.2 8,48.9 6.4,50.5 "/>
</svg>
