<?xml version="1.0" encoding="utf-8"?>
<!-- Generator: Adobe Illustrator 19.0.0, SVG Export Plug-In . SVG Version: 6.00 Build 0)  -->
<svg version="1.1" id="Calque_1" xmlns="http://www.w3.org/2000/svg" xmlns:xlink="http://www.w3.org/1999/xlink" x="0px" y="0px"
	 viewBox="0 0 82.5 82.5" style="enable-background:new 0 0 82.5 82.5;" xml:space="preserve">
<style type="text/css">
	.st0{fill:none;stroke:#676767;stroke-miterlimit:10;}
	.st1{fill:#676767;}
</style>
<g>
	<polyline class="st0" points="52.7,13.8 68.4,13.8 68.4,29.3 	"/>
	<polyline class="st0" points="13.9,29.8 13.9,13.8 29.9,13.8 	"/>
	<polyline class="st0" points="29.9,68.3 13.9,68.3 13.9,52.3 	"/>
	<polyline class="st0" points="68.4,52.3 68.4,68.3 52.5,68.3 	"/>
	<polyline class="st0" points="16.7,27 16.7,16.6 27.1,16.6 	"/>
	<polyline class="st0" points="27.2,65.5 16.7,65.5 16.7,55.1 	"/>
	<polyline class="st0" points="65.7,55.1 65.7,65.5 55.2,65.5 	"/>
	<polyline class="st0" points="55.2,16.6 65.7,16.6 65.7,27 	"/>
	<polyline class="st0" points="19.3,24.4 19.3,19.2 24.6,19.2 	"/>
	<polyline class="st0" points="24.6,63 19.3,63 19.3,57.7 	"/>
	<polyline class="st0" points="63.1,57.9 63.1,63 57.8,63 	"/>
	<polyline class="st0" points="58.3,19.2 63.1,19.2 63.1,24.1 	"/>
	
		<rect x="13.9" y="13.8" transform="matrix(0.7071 -0.7071 0.7071 0.7071 -16.972 41.1509)" class="st0" width="54.5" height="54.5"/>
	
		<rect x="16.7" y="16.5" transform="matrix(0.7071 -0.7071 0.7071 0.7071 -16.972 41.1509)" class="st0" width="49.1" height="49.1"/>
	<line class="st0" x1="51.3" y1="65.6" x2="31" y2="65.6"/>
	<line class="st0" x1="65.7" y1="30.9" x2="65.7" y2="51.2"/>
	<line class="st0" x1="31" y1="16.5" x2="51.3" y2="16.5"/>
	<line class="st0" x1="33.7" y1="13.8" x2="48.6" y2="13.8"/>
	<line class="st0" x1="13.9" y1="48.6" x2="13.9" y2="33.7"/>
	<line class="st0" x1="68.8" y1="48.2" x2="68.8" y2="33.7"/>
	<line class="st0" x1="33.7" y1="68.2" x2="48.6" y2="68.2"/>
	<line class="st0" x1="16.7" y1="51.4" x2="16.7" y2="30.9"/>
	<line class="st0" x1="75.9" y1="41.1" x2="69.1" y2="41.1"/>
	<line class="st0" x1="13.9" y1="41.1" x2="7.2" y2="41.1"/>
	<line class="st0" x1="41.2" y1="13.4" x2="41.2" y2="6.7"/>
	<line class="st0" x1="41.2" y1="75" x2="41.2" y2="68.2"/>
	<g>
		<path class="st1" d="M28.2,34.7l0,12.7h-1.5l0-12.7H28.2z"/>
		<path class="st1" d="M30.8,34.7h1.5v1.5h-1.5V34.7z M30.8,37.8h1.5l0,9.7h-1.5L30.8,37.8z"/>
		<path class="st1" d="M38.9,36.6v1.5h-3.1v9.3h-1.5V34.7h1.5v2H38.9z"/>
		<path class="st1" d="M42.4,34.7v8.1h3.1v-8.1H47v12.8h-1.5v-3.1h-3.1v3.1h-1.5V34.7H42.4z"/>
		<path class="st1" d="M55.8,34.7v1.5h-4.6v6.6h3.1v1.5h-3.1v1.5h4.6v1.5h-6.2V34.7H55.8z"/>
	</g>
	<polyline class="st0" points="38.6,9 38.6,11.2 36.3,11.2 	"/>
	<polyline class="st0" points="46.1,11.2 43.8,11.2 43.8,9 	"/>
	<polyline class="st0" points="43.8,73.1 43.8,70.8 46.1,70.8 	"/>
	<polyline class="st0" points="36.3,70.8 38.6,70.8 38.6,73.1 	"/>
	<polyline class="st0" points="73.2,38.3 70.9,38.3 70.9,36.1 	"/>
	<polyline class="st0" points="71.1,45.8 71.1,43.5 73.4,43.5 	"/>
	<polyline class="st0" points="9.1,43.5 11.3,43.5 11.3,45.8 	"/>
	<polyline class="st0" points="11.5,36.1 11.5,38.3 9.3,38.3 	"/>
</g>
</svg>
